<?xml version="1.0" standalone="no"?>
<!DOCTYPE svg PUBLIC "-//W3C//DTD SVG 20010904//EN"
 "http://www.w3.org/TR/2001/REC-SVG-20010904/DTD/svg10.dtd">
<svg version="1.0" xmlns="http://www.w3.org/2000/svg"
 width="1248.000000pt" height="1248.000000pt" viewBox="0 0 1248.000000 1248.000000"
 preserveAspectRatio="xMidYMid meet">
<metadata>
Created by potrace 1.14, written by Peter Selinger 2001-2017
</metadata>
<g transform="translate(0.000000,1248.000000) scale(0.100000,-0.100000)"
fill="#000000" stroke="none">
<path d="M6245 10768 c-96 -10 -161 -39 -298 -132 -137 -92 -244 -154 -274
-161 -10 -2 -36 -7 -58 -12 -41 -10 -222 -8 -285 1 -77 12 -336 7 -406 -8 -12
-2 -37 -7 -55 -10 -101 -17 -282 -61 -339 -83 -8 -4 -17 -7 -20 -8 -3 -1 -22
-9 -44 -18 -21 -9 -41 -17 -45 -17 -14 0 -61 -25 -61 -32 0 -5 -6 -8 -14 -8
-8 0 -47 -18 -87 -41 -41 -22 -82 -43 -91 -46 -10 -3 -18 -9 -18 -14 0 -5 -6
-9 -13 -9 -20 0 -236 -149 -347 -240 -52 -42 -110 -85 -127 -96 -18 -10 -33
-22 -33 -26 0 -4 -5 -8 -11 -8 -20 0 -247 -189 -343 -286 -63 -64 -131 -143
-177 -209 -24 -33 -47 -61 -51 -63 -4 -2 -8 -8 -8 -13 0 -5 -15 -32 -34 -61
-100 -157 -231 -467 -252 -598 -3 -19 -8 -38 -10 -41 -2 -4 -6 -24 -9 -45 -3
-22 -8 -46 -11 -54 -9 -24 -11 -240 -3 -290 13 -81 16 -94 62 -250 42 -140 66
-227 73 -255 1 -5 11 -48 22 -95 21 -84 33 -146 38 -185 1 -11 3 -20 4 -20 9
0 12 -142 14 -750 1 -438 5 -716 11 -725 6 -8 24 -23 40 -33 50 -29 195 -97
209 -97 6 0 16 -4 22 -10 5 -5 22 -11 37 -12 15 -1 27 -6 27 -11 0 -4 5 -5 10
-2 6 3 15 3 22 -1 17 -11 63 -17 130 -18 32 -1 58 -3 58 -6 0 -3 23 -6 50 -7
64 -3 117 -28 141 -67 16 -26 18 -46 14 -141 -2 -60 -4 -125 -4 -142 -1 -29
-6 -35 -48 -55 -149 -68 -269 -182 -341 -325 -20 -38 -28 -64 -37 -123 -15
-95 -66 -254 -103 -320 -34 -60 -133 -204 -144 -208 -4 -2 -8 -9 -8 -15 0 -7
-10 -23 -22 -37 -13 -14 -35 -43 -51 -66 -15 -22 -35 -49 -45 -60 -31 -35
-122 -172 -122 -185 0 -7 -3 -10 -6 -6 -4 3 -14 -8 -24 -26 -9 -18 -27 -50
-40 -71 l-24 -39 27 5 c15 3 30 1 33 -4 3 -4 10 -6 15 -2 6 3 46 5 90 5 98 -2
91 -2 165 0 34 1 66 -1 72 -5 6 -3 13 -2 17 4 4 6 10 8 15 5 4 -3 47 -7 95
-10 48 -2 90 -7 93 -10 3 -2 11 0 19 6 7 6 13 8 13 3 0 -5 19 -10 43 -11 57
-2 202 -12 202 -14 0 0 16 -2 35 -3 19 -2 58 -6 85 -10 28 -3 66 -8 85 -10 83
-10 139 -18 190 -26 30 -5 73 -12 95 -15 22 -3 47 -7 55 -10 8 -2 35 -6 61 -9
25 -3 52 -7 60 -10 7 -3 30 -7 49 -10 19 -3 46 -8 60 -11 14 -3 37 -7 52 -10
15 -2 35 -6 45 -9 21 -6 71 -17 95 -20 10 -1 20 -5 24 -8 3 -4 12 -4 20 -1 8
3 14 0 14 -7 0 -6 4 -9 9 -6 7 5 200 -40 301 -69 8 -2 31 -9 50 -14 65 -17
338 -100 366 -112 16 -6 38 -16 49 -21 12 -5 27 -10 35 -12 8 -1 47 -14 85
-29 91 -34 118 -44 127 -46 7 -2 174 -69 223 -90 70 -31 100 -43 186 -80 53
-22 136 -59 185 -81 49 -23 91 -42 94 -42 3 0 13 -7 23 -15 9 -9 17 -13 17
-10 0 3 62 -26 138 -65 319 -164 509 -288 661 -432 36 -34 74 -70 86 -81 12
-11 48 -40 81 -65 32 -25 61 -47 64 -50 6 -6 16 -12 115 -72 39 -23 73 -47 77
-53 4 -5 8 -6 8 -1 0 4 11 1 23 -7 28 -18 176 -77 195 -77 7 0 11 -4 8 -8 -2
-4 5 -9 17 -9 12 -1 23 -7 25 -13 3 -7 9 -7 20 2 9 8 13 8 9 2 -4 -7 0 -14 8
-18 8 -3 17 -1 20 5 4 5 17 7 30 5 13 -3 29 2 36 10 6 7 15 12 19 9 5 -3 11
-1 15 5 4 6 10 8 15 5 5 -3 13 2 18 12 9 15 12 15 27 3 15 -12 16 -12 13 6 -2
16 3 19 35 18 33 0 36 2 23 12 -15 10 -13 13 14 22 16 6 30 16 30 22 0 6 4 9
8 6 4 -2 30 13 57 34 29 23 54 36 64 32 14 -5 14 -4 1 13 -8 10 -10 16 -3 12
6 -4 18 1 25 11 7 10 22 22 32 25 10 4 16 10 13 14 -12 12 33 62 50 56 10 -4
14 -2 10 4 -3 5 0 21 7 34 7 14 12 33 10 43 -1 9 3 19 11 22 7 3 11 18 10 35
-1 16 2 29 8 29 6 0 7 3 4 7 -4 3 -1 13 6 21 10 13 9 15 -5 9 -13 -5 -16 -1
-12 19 3 15 0 24 -8 24 -10 0 -10 2 0 9 11 7 11 9 -2 14 -10 4 -13 13 -9 23 5
13 3 15 -8 9 -8 -4 -11 -5 -7 0 4 4 3 14 -2 21 -6 6 -9 18 -8 25 2 8 -2 13 -9
12 -8 -2 -10 4 -6 14 5 12 3 14 -7 8 -8 -5 -11 -4 -7 2 4 6 -3 22 -14 37 -11
14 -17 26 -14 26 4 0 1 7 -6 17 -8 9 -13 18 -11 20 7 9 0 23 -10 21 -15 -4
-18 22 -4 41 8 11 8 13 -1 7 -7 -4 -22 2 -35 13 -12 12 -18 21 -14 21 5 0 3 6
-3 13 -16 20 -2 28 23 15 11 -6 22 -9 23 -7 1 2 5 0 10 -5 5 -5 2 -6 -7 -2 -8
4 -6 0 5 -10 14 -11 15 -15 4 -11 -9 3 -16 0 -16 -8 0 -8 7 -11 15 -7 11 4 14
1 9 -11 -3 -9 -2 -19 4 -22 5 -4 6 -11 3 -17 -5 -7 -2 -8 6 -3 9 5 11 4 6 -4
-5 -7 3 -22 19 -37 15 -13 23 -29 19 -36 -5 -7 -3 -8 6 -3 9 6 11 4 5 -4 -5
-10 -3 -10 13 0 17 11 18 14 6 27 -8 7 -12 18 -8 23 3 5 0 8 -8 7 -7 -2 -12 3
-10 10 1 7 -8 22 -20 32 -13 11 -19 19 -15 20 10 0 -31 71 -47 82 -6 4 -7 8
-3 8 5 0 1 7 -7 16 -9 8 -13 20 -10 26 4 7 2 8 -5 4 -6 -4 -9 -12 -6 -17 3 -5
-1 -6 -10 -3 -11 5 -13 10 -5 19 8 9 8 15 0 20 -6 3 -8 11 -4 16 3 5 2 8 -3 7
-4 -2 -8 0 -8 3 0 4 -8 16 -18 26 -9 11 -15 22 -12 25 3 3 -1 10 -8 17 -11 9
-17 7 -28 -6 -12 -14 -12 -16 0 -8 10 6 12 4 6 -5 -5 -8 -4 -11 3 -6 7 4 10
-1 7 -14 -3 -13 0 -18 7 -14 7 5 8 2 3 -6 -6 -9 -4 -11 5 -5 9 6 11 4 5 -5 -6
-9 -4 -11 5 -5 9 6 11 4 5 -5 -5 -8 -4 -11 3 -6 7 4 10 -1 7 -14 -2 -12 0 -18
6 -15 5 4 9 3 8 -2 -3 -18 2 -34 9 -29 12 7 38 -12 28 -21 -5 -4 -11 -2 -13 5
-4 9 -9 10 -18 2 -9 -7 -16 -6 -26 7 -9 11 -10 14 -1 9 6 -4 12 -2 12 3 0 6
-5 11 -11 11 -6 0 -9 7 -6 15 4 8 2 17 -3 20 -4 3 -11 -1 -13 -7 -4 -10 -6
-10 -6 0 -2 21 -4 26 -27 51 l-23 25 21 28 c20 28 20 30 2 43 -11 8 -15 15
-10 15 5 0 1 9 -8 19 -10 11 -15 24 -12 29 3 5 -3 18 -14 29 -10 12 -16 24
-12 27 3 4 -2 4 -13 0 -18 -7 -19 -6 -6 10 12 14 12 19 2 25 -7 5 -12 11 -11
15 1 4 -1 17 -5 29 -4 12 -8 24 -9 27 -1 3 -5 11 -9 18 -5 6 -5 17 -2 22 3 6
-1 13 -9 16 -12 5 -13 11 -6 24 8 14 6 21 -6 28 -11 6 -13 12 -6 16 7 4 6 15
-3 33 -8 15 -12 30 -9 35 3 4 1 8 -5 8 -5 0 -8 -16 -7 -35 2 -19 0 -33 -4 -30
-10 6 -7 -15 4 -34 6 -9 5 -12 -1 -8 -5 3 -10 0 -10 -8 0 -13 3 -13 17 0 9 8
20 15 25 15 5 0 0 -7 -11 -16 -10 -8 -13 -12 -5 -8 9 4 12 3 7 -4 -3 -6 -2
-13 3 -16 7 -5 8 -41 1 -41 -1 0 -3 -8 -5 -18 -2 -9 1 -15 5 -12 5 3 7 -4 5
-16 -4 -20 -3 -21 15 -4 17 16 18 16 15 -2 -2 -10 -4 -18 -5 -18 -1 0 -3 -8
-5 -18 -2 -10 1 -14 7 -11 7 5 8 2 3 -6 -5 -8 -4 -11 3 -6 7 4 9 -3 6 -20 -4
-22 -3 -25 9 -16 18 15 26 6 21 -23 -2 -13 0 -27 6 -30 6 -4 7 -11 4 -17 -5
-7 -2 -8 7 -3 12 8 12 6 0 -9 -12 -15 -12 -17 0 -14 8 2 13 -3 11 -10 -1 -8 2
-11 9 -6 8 5 9 3 4 -6 -6 -9 -4 -11 6 -5 12 8 12 6 0 -8 -11 -13 -17 -15 -28
-6 -7 7 -11 14 -9 16 3 3 -6 17 -19 31 -16 17 -21 30 -15 36 14 14 12 26 -3
20 -7 -2 -20 9 -30 26 -10 16 -15 30 -10 30 4 0 1 5 -7 10 -13 9 -13 10 0 10
11 1 9 4 -5 13 -12 7 -21 21 -21 32 0 11 -4 19 -10 18 -5 -1 -11 7 -11 18 -1
10 3 19 9 19 6 0 8 3 4 7 -4 5 -13 8 -19 8 -7 0 -13 10 -13 23 -1 12 -3 25 -4
30 -1 4 -2 10 -1 15 0 4 -3 7 -9 7 -5 0 -10 5 -10 11 0 5 4 8 9 5 5 -3 14 1
21 9 11 13 9 15 -11 13 -13 -2 -24 3 -25 10 -1 6 -3 13 -4 15 -8 8 -5 74 4 86
9 12 8 13 -6 8 -10 -3 -18 -5 -18 -4 -9 50 -10 77 -2 77 5 0 8 -13 7 -30 -1
-16 1 -28 5 -25 10 6 35 -27 35 -46 0 -9 -7 -25 -15 -35 -14 -18 -14 -18 4 -4
18 13 19 13 11 0 -8 -13 -7 -13 9 0 10 8 25 15 33 16 24 4 28 14 5 14 -12 0
-22 4 -22 9 0 6 9 8 20 6 14 -3 18 0 13 8 -11 18 -10 80 2 96 8 11 7 13 -4 7
-9 -6 -12 -5 -9 5 3 8 12 13 19 11 11 -3 12 -1 2 9 -16 16 -17 33 -1 23 6 -4
8 -3 5 3 -4 6 -1 16 7 22 8 7 13 20 11 29 -1 9 7 27 18 39 11 13 17 23 13 23
-4 0 -1 6 6 14 7 8 17 11 22 8 5 -3 6 0 2 6 -3 6 3 13 14 17 11 3 20 11 20 17
0 6 3 8 7 5 9 -9 53 33 53 50 0 8 5 11 10 8 6 -4 7 -12 4 -18 -4 -7 4 -1 19
12 14 13 23 29 20 37 -3 10 0 12 10 9 8 -4 17 1 21 10 3 9 11 13 17 9 8 -4 9
-3 5 5 -8 13 18 44 28 33 4 -3 4 2 0 11 -3 10 -3 17 2 15 5 -2 10 0 12 5 1 4
10 15 20 26 9 10 30 34 46 54 16 20 33 34 39 30 6 -3 7 -1 3 5 -4 7 -2 12 3
12 6 0 11 8 11 18 0 15 -2 15 -11 2 -9 -13 -10 -12 -5 2 3 10 1 20 -5 23 -5 4
-6 11 -3 17 4 6 -1 6 -14 -1 -12 -6 -24 -17 -28 -24 -5 -9 -4 -9 7 0 7 7 17
13 22 13 5 0 1 -8 -10 -18 -10 -9 -14 -14 -9 -10 15 12 26 10 26 -4 0 -6 -3
-8 -7 -5 -3 4 -12 2 -20 -4 -7 -6 -14 -9 -14 -5 -5 25 -3 33 10 50 9 11 11 16
4 13 -6 -4 -14 -3 -18 3 -4 6 -10 8 -15 5 -13 -8 -1 -57 18 -80 9 -12 5 -8
-10 7 -31 31 -38 27 -10 -6 14 -18 15 -19 0 -8 -13 11 -16 11 -14 0 1 -7 6
-19 10 -27 6 -9 5 -12 -1 -8 -6 4 -9 -3 -8 -16 2 -16 -2 -23 -15 -23 -10 0
-16 5 -13 10 3 5 1 6 -6 2 -6 -4 -9 -12 -5 -17 3 -6 -2 -19 -11 -29 -10 -11
-14 -24 -10 -32 6 -10 5 -10 -5 -1 -11 10 -11 16 3 31 19 21 22 32 7 32 -6 0
-9 -3 -8 -7 2 -5 -5 -19 -15 -33 -9 -13 -17 -20 -17 -16 0 5 8 19 18 30 16 20
16 20 -2 6 -18 -13 -19 -13 -11 0 5 9 5 12 -1 7 -5 -5 -9 -18 -9 -30 -1 -12
-4 -28 -9 -35 -4 -7 -2 -20 6 -30 11 -15 11 -15 -3 -5 -19 15 -30 8 -22 -15 4
-15 3 -15 -6 -2 -9 13 -11 13 -11 0 0 -13 -1 -13 -10 0 -9 13 -10 13 -10 0 0
-13 -2 -13 -11 0 -9 13 -10 12 -5 -3 3 -11 2 -16 -4 -12 -6 4 -8 16 -6 29 3
15 -1 23 -10 23 -9 0 -11 -4 -4 -12 5 -7 7 -15 3 -18 -3 -4 0 -14 8 -23 19
-23 22 -49 3 -33 -7 6 -11 16 -7 22 4 6 1 7 -7 2 -9 -5 -11 -4 -6 3 11 18 0
14 -15 -5 -12 -15 -12 -16 1 -8 13 8 13 7 0 -10 -8 -10 -14 -21 -13 -24 1 -3
-6 -5 -15 -3 -14 3 -13 1 3 -13 19 -16 19 -16 -4 -5 -19 10 -22 9 -15 -1 4 -7
-8 -2 -26 11 -18 13 -30 18 -25 10 6 -9 4 -11 -5 -5 -9 6 -11 4 -5 -5 6 -9 4
-11 -5 -5 -9 6 -11 4 -5 -5 6 -9 4 -11 -6 -6 -8 4 -5 0 5 -8 11 -9 15 -16 9
-16 -13 0 -35 25 -28 32 3 2 -2 5 -10 5 -12 0 -10 -6 7 -25 13 -14 16 -22 8
-18 -8 4 -4 -2 9 -13 13 -12 19 -21 14 -21 -15 0 -44 36 -36 43 3 4 1 7 -5 7
-17 0 -15 -10 6 -34 17 -21 17 -21 -5 -2 -13 11 -23 17 -24 15 0 -2 -2 -12 -4
-21 -2 -12 3 -15 16 -13 13 3 17 0 12 -8 -5 -9 -3 -9 8 0 12 10 15 7 14 -17 0
-16 -4 -26 -10 -22 -5 3 -3 -3 5 -13 9 -12 10 -16 2 -11 -8 5 -11 3 -10 -5 4
-16 -22 -19 -41 -5 -12 9 -12 7 -2 -11 7 -14 17 -20 26 -17 8 4 15 1 15 -6 0
-6 -4 -9 -9 -5 -5 3 -13 0 -17 -6 -4 -7 -3 -9 4 -5 14 8 9 -18 -7 -38 -14 -17
-1 -22 15 -6 6 6 10 2 11 -13 0 -12 -1 -16 -4 -9 -4 10 -9 9 -20 -5 -8 -10
-12 -12 -8 -5 4 7 1 11 -6 10 -7 -2 -13 2 -14 7 0 6 -4 16 -9 24 -6 10 -3 18
9 28 14 9 15 13 4 13 -12 0 -12 2 1 10 11 7 11 10 2 10 -7 0 -11 4 -8 8 2 4 1
14 -5 22 -6 11 -9 11 -10 3 -2 -13 -5 -27 -9 -40 -1 -5 -2 -11 -1 -15 0 -5 -5
-8 -11 -8 -9 0 -8 -3 2 -10 8 -5 11 -12 7 -16 -11 -11 -19 2 -21 34 -2 23 1
29 14 24 13 -5 13 -3 1 11 -8 10 -10 24 -5 34 4 10 8 25 8 33 1 8 6 22 11 30
5 8 10 22 12 30 1 8 7 16 13 18 5 2 7 9 3 15 -4 7 2 5 12 -3 17 -14 18 -13 12
3 -5 13 2 26 23 43 16 14 31 24 32 22 2 -2 19 11 38 29 22 21 38 29 44 23 17
-17 29 -11 15 7 -12 14 -12 16 0 8 11 -6 13 -4 8 8 -7 18 24 42 38 29 5 -4 5
1 2 10 -4 13 3 25 23 40 16 11 27 25 24 30 -3 5 0 7 8 6 7 -2 12 3 10 10 -1 8
2 11 8 7 5 -3 10 -1 10 5 0 12 14 31 42 57 9 9 14 21 11 26 -3 6 -1 7 5 3 6
-3 15 2 21 11 6 10 11 15 11 11 0 -4 15 7 33 23 46 43 82 59 98 45 9 -8 11 -7
6 7 -5 12 -1 17 11 17 10 0 23 5 30 12 9 9 12 8 12 -6 0 -9 5 -14 10 -11 6 4
8 11 4 16 -3 5 -2 9 3 8 4 -1 10 0 13 1 6 2 25 7 57 14 15 3 26 -1 33 -12 9
-16 9 -16 10 1 0 16 11 21 39 18 7 -2 10 2 6 8 -4 7 0 8 11 4 13 -5 15 -3 9 7
-5 9 -4 11 3 6 6 -4 20 2 32 14 11 11 20 17 20 13 0 -5 5 -1 10 7 5 8 14 15
20 15 6 0 14 6 19 13 5 8 12 14 17 15 5 1 8 7 6 12 -1 6 5 1 14 -10 15 -19 15
-19 9 7 -6 24 -4 27 14 23 23 -4 29 10 9 18 -10 4 -10 6 0 6 7 1 10 6 7 11 -4
6 -1 9 7 8 7 -2 12 2 11 9 -2 7 4 10 12 7 10 -4 13 0 10 15 -2 12 1 21 6 21 6
0 8 4 4 9 -3 5 -1 12 5 16 6 4 8 11 4 16 -3 5 -1 8 5 7 5 -2 22 11 38 28 15
16 21 21 13 10 -13 -17 -13 -19 0 -12 8 4 4 -2 -10 -14 -14 -12 -19 -18 -11
-14 9 5 12 3 7 -4 -5 -8 -2 -10 8 -6 18 7 22 -11 4 -22 -7 -5 -8 -3 -3 6 17
28 -15 -2 -35 -33 -21 -31 -21 -31 -1 -8 12 13 21 19 21 14 0 -13 -35 -44 -42
-38 -3 3 -8 -1 -11 -9 -4 -10 -1 -13 7 -10 8 3 17 0 22 -7 5 -9 2 -10 -10 -6
-10 4 -19 1 -23 -9 -5 -13 -7 -13 -15 -2 -6 9 -7 4 -4 -13 3 -17 0 -26 -10
-26 -7 0 -10 5 -7 10 3 6 1 7 -5 3 -17 -10 -15 -29 3 -23 8 4 17 2 21 -4 3 -6
13 -8 21 -5 9 4 11 2 7 -6 -5 -7 -3 -8 7 -3 12 7 12 6 1 -7 -18 -22 5 -19 42
6 24 15 25 20 14 34 -11 13 -11 15 4 9 13 -5 19 0 24 18 3 14 11 22 17 18 6
-4 8 0 4 9 -3 9 1 25 10 37 14 20 13 24 -3 42 -16 18 -16 19 -1 13 21 -8 22 5
3 31 -7 11 -14 25 -15 30 0 6 -7 17 -15 27 -8 9 -11 20 -8 24 4 5 -1 2 -10 -5
-20 -15 -25 -2 -7 16 8 8 6 16 -10 29 -15 13 -17 20 -8 26 9 6 9 8 -1 8 -7 0
-10 4 -7 10 4 6 -1 7 -12 3 -15 -6 -16 -4 -5 9 10 12 9 18 -3 28 -8 7 -12 16
-9 21 3 5 0 9 -6 9 -6 0 -9 4 -6 9 11 17 -6 42 -23 37 -11 -4 -10 -2 3 9 11 8
15 15 8 15 -6 0 -9 9 -7 20 2 11 -1 19 -7 17 -6 -1 -13 4 -16 12 -3 10 0 11 9
5 12 -6 12 -5 1 8 -9 11 -10 18 -2 23 6 4 7 13 2 23 -8 16 -8 34 -2 47 1 3 4
10 5 15 1 6 4 12 5 15 1 3 3 9 4 14 0 6 6 15 13 22 6 6 9 18 6 27 -4 9 -2 13
4 9 6 -4 14 0 17 9 3 9 11 12 18 8 7 -4 10 -4 6 1 -4 4 0 14 8 22 8 8 11 20 7
26 -4 6 0 8 10 4 8 -3 21 1 27 9 7 8 9 14 4 14 -4 0 1 7 12 15 19 15 19 15 -1
9 -17 -4 -17 -3 3 12 34 25 88 107 74 112 -7 2 -12 8 -12 13 0 4 7 6 15 3 8
-4 15 -2 15 4 0 6 3 18 7 28 5 14 3 16 -12 10 -18 -7 -18 -6 1 15 10 12 13 19
7 15 -8 -4 -13 -2 -13 4 0 7 -7 10 -17 6 -15 -5 -15 -4 1 9 17 13 18 15 3 15
-9 0 -17 -4 -17 -8 0 -5 -7 -9 -15 -9 -16 0 -20 12 -7 20 4 2 2 2 -5 1 -6 -2
-14 0 -16 4 -2 4 -2 1 0 -6 1 -7 -2 -10 -8 -6 -7 4 -10 1 -7 -7 3 -8 10 -15
16 -15 7 -1 15 -3 20 -4 4 -1 11 -2 15 -1 5 1 6 -3 3 -8 -4 -5 -15 -8 -26 -6
-12 2 -19 1 -16 -3 2 -4 -8 -8 -22 -8 -15 -1 -21 1 -14 3 6 3 10 9 7 14 -4 5
2 6 12 2 14 -5 16 -4 7 8 -6 8 -11 25 -12 38 0 13 -13 36 -28 52 -14 15 -23
32 -20 38 4 6 3 11 -2 11 -13 0 -10 33 3 42 6 5 6 8 -2 8 -13 0 -12 18 1 39 6
10 5 12 -2 7 -7 -4 -12 -3 -12 3 0 5 4 12 9 16 5 3 8 21 6 40 -2 19 0 33 3 31
10 -6 8 86 -1 101 -4 6 -3 15 3 18 8 5 8 11 0 20 -7 8 -9 19 -6 24 4 5 2 12
-4 16 -6 4 -7 11 -4 17 5 7 2 8 -5 4 -8 -5 -11 -3 -10 5 4 21 -11 59 -23 59
-6 0 -9 3 -5 6 3 4 -1 20 -9 36 -8 16 -12 33 -9 39 4 5 3 8 -2 7 -7 -3 -15 7
-12 15 7 14 4 77 -3 77 -5 0 -6 5 -3 10 4 6 10 8 15 5 5 -3 7 3 5 14 -2 10 5
28 16 40 11 12 17 26 14 31 -4 6 1 13 9 16 8 3 18 15 22 26 3 11 8 17 12 14 3
-4 16 4 29 15 12 12 35 23 50 24 16 1 27 7 26 12 -1 6 4 14 12 17 9 3 12 0 9
-8 -6 -15 22 -30 31 -16 3 5 14 7 24 5 11 -2 22 2 25 10 8 21 -6 26 -21 7 -11
-15 -12 -15 -7 -1 3 10 1 20 -5 24 -6 3 -9 0 -5 -8 3 -8 1 -18 -5 -22 -7 -3
-8 0 -5 9 8 20 -46 17 -64 -4 -11 -13 -11 -11 -2 8 7 13 14 21 17 18 3 -3 21
1 39 9 19 8 38 15 42 17 4 2 6 7 4 11 -1 5 1 6 6 3 4 -3 21 6 36 19 16 14 33
22 39 18 6 -4 8 0 4 11 -5 11 -3 15 5 10 7 -5 9 -2 5 8 -3 9 2 23 13 33 10 9
16 23 13 31 -3 8 -1 14 4 14 12 0 9 113 -3 132 -5 7 -9 18 -10 23 0 6 -2 15
-2 22 -1 6 -10 14 -20 17 -11 4 -25 17 -32 31 -7 13 -17 22 -22 19 -4 -3 -8
-1 -8 5 0 18 -112 61 -175 66 -11 1 -21 7 -21 13 -1 7 -2 17 -3 23 0 5 -5 7
-11 4 -5 -3 -10 1 -10 9 0 8 -9 17 -19 21 -11 3 -21 12 -23 19 -2 7 -34 47
-72 89 -50 55 -73 74 -81 67 -9 -7 -16 -6 -24 4 -9 11 -9 16 0 22 8 4 9 3 5
-4 -5 -8 -1 -10 9 -6 14 6 12 10 -9 24 -15 9 -23 20 -19 25 5 4 2 5 -4 1 -7
-4 -13 -3 -13 3 0 6 -11 21 -25 35 -14 14 -25 29 -25 33 0 5 -4 8 -10 8 -5 0
-10 3 -10 7 0 4 -12 19 -26 33 -16 16 -23 32 -20 42 4 8 1 22 -5 29 -8 10 -8
14 -1 14 6 0 9 9 7 20 -2 11 0 20 6 20 5 0 9 4 9 9 0 6 -9 8 -19 6 -14 -2 -18
1 -14 10 2 8 10 13 16 12 7 -1 11 8 11 21 -1 17 3 22 14 17 9 -3 13 -3 10 1
-4 3 4 18 17 32 13 13 21 31 18 39 -3 8 -2 13 3 11 5 -2 19 4 32 13 16 11 20
22 16 34 -5 12 -4 16 3 12 6 -4 17 1 24 11 22 26 51 82 43 82 -3 0 -1 7 6 15
9 10 9 15 1 15 -6 0 -11 -5 -11 -12 0 -6 -2 -9 -5 -6 -9 8 6 38 16 32 15 -9
22 25 9 42 -9 10 -10 18 -3 25 12 12 5 59 -9 59 -5 0 -7 4 -4 8 7 12 -42 54
-54 47 -5 -3 -11 -1 -15 5 -3 5 -15 15 -27 21 -15 8 -19 8 -14 0 13 -20 0 -12
-38 23 -20 19 -52 40 -71 47 -19 7 -35 17 -35 21 0 5 -11 20 -25 33 -13 14
-19 25 -12 25 7 0 6 4 -3 10 -8 5 -11 10 -7 10 4 0 3 9 -3 19 -7 14 -7 22 0
26 8 5 8 11 1 19 -7 9 -6 19 4 34 11 15 12 23 4 28 -8 4 -7 9 2 15 11 7 11 9
1 9 -8 0 -10 5 -5 13 4 6 9 28 9 47 1 19 3 40 5 46 2 6 -5 20 -16 30 -11 11
-16 16 -11 12 17 -13 25 -9 23 12 -1 11 -4 20 -7 20 -3 0 -6 9 -7 20 -1 13 2
18 9 14 7 -4 8 -2 4 4 -4 6 -14 8 -24 5 -15 -6 -16 -5 -2 12 10 13 11 16 2 11
-9 -5 -13 -3 -11 5 4 30 -2 45 -26 72 -14 15 -23 27 -19 27 3 0 -13 22 -35 49
-23 27 -41 54 -41 61 0 7 -7 10 -16 6 -9 -3 -18 -6 -20 -6 -3 0 -2 -5 2 -11 4
-8 9 -7 16 2 7 11 8 10 4 -4 -4 -12 -2 -16 6 -11 7 5 8 3 3 -6 -5 -8 -4 -11 2
-7 5 3 10 0 10 -8 0 -20 -1 -20 -41 21 -22 23 -32 42 -29 52 4 8 2 13 -3 9 -6
-3 -16 -2 -24 4 -11 6 -12 9 -2 9 7 0 10 5 7 10 -4 6 -12 7 -18 4 -7 -4 -9 -4
-5 1 4 4 -2 16 -14 26 -11 11 -16 19 -9 19 7 0 9 5 6 10 -4 6 -11 7 -17 4 -6
-4 -8 -2 -4 4 3 5 0 12 -6 15 -10 3 -10 8 1 21 13 16 13 17 -1 14 -9 -1 -16 2
-15 7 1 6 6 9 10 7 5 -1 5 2 2 8 -4 6 -14 9 -22 6 -8 -3 -11 -2 -8 3 3 5 1 13
-5 16 -8 5 -8 11 0 20 8 10 7 14 -2 18 -7 2 -9 8 -5 13 4 5 12 2 17 -6 6 -8
10 -10 10 -4 0 16 -25 35 -35 26 -5 -4 -5 -1 -1 6 4 6 4 18 -1 25 -4 6 -8 36
-9 65 -1 39 2 52 11 48 7 -2 19 1 26 7 11 10 11 9 0 -5 -7 -10 -16 -16 -20
-14 -4 3 -7 -8 -6 -24 0 -15 4 -26 9 -23 5 4 6 0 1 -7 -6 -9 -4 -11 6 -5 11 7
11 5 -1 -11 -14 -18 -14 -18 2 -5 10 7 15 17 12 22 -3 5 0 9 6 9 6 0 9 4 6 9
-6 8 17 32 44 46 8 4 4 -3 -10 -16 -14 -13 -20 -20 -13 -15 20 13 40 -9 25
-26 -7 -9 -7 -19 -2 -28 6 -9 4 -20 -3 -29 -10 -12 -9 -13 3 -6 12 6 13 5 3
-5 -15 -17 -29 -6 -17 13 5 7 1 4 -8 -6 -10 -11 -18 -15 -18 -10 0 5 6 15 13
23 10 12 9 12 -6 0 -10 -7 -16 -19 -13 -27 4 -8 1 -11 -5 -7 -6 3 -3 -5 6 -20
21 -32 23 -32 20 -1 -3 22 -1 23 16 15 23 -13 25 -22 4 -14 -8 4 -15 1 -15 -5
0 -6 3 -10 8 -10 20 3 23 -3 11 -18 -12 -14 -12 -16 1 -9 8 4 6 0 -5 -9 -16
-14 -17 -16 -3 -13 9 2 16 0 15 -3 -1 -3 5 -14 13 -24 13 -17 13 -18 0 -11 -8
4 -6 0 4 -8 11 -9 15 -16 10 -16 -6 0 -15 5 -20 10 -7 7 -11 6 -11 -4 0 -8 5
-12 11 -9 6 4 4 -2 -4 -12 -12 -15 -12 -17 -1 -10 10 6 12 4 6 -5 -6 -9 -4
-11 6 -5 11 7 11 5 -1 -11 -14 -18 -13 -18 10 1 15 12 20 14 12 4 -10 -13 -10
-18 1 -27 7 -6 19 -7 26 -3 10 6 9 10 -4 15 -9 3 -13 10 -10 16 3 5 3 16 -2
23 -9 14 -14 34 -16 60 -1 9 -5 17 -10 17 -5 0 -3 8 4 17 8 9 9 14 3 10 -7 -4
-14 2 -17 13 -3 11 -1 23 4 26 5 3 6 11 2 17 -10 17 -11 79 -1 99 5 10 4 19
-2 23 -8 5 -7 11 0 20 10 11 8 13 -9 10 -12 -2 -19 0 -16 6 4 5 12 9 20 9 8 0
12 8 10 20 -2 11 0 22 4 25 5 2 7 16 6 30 -2 14 1 25 7 25 5 0 6 9 3 20 -4 12
-2 20 5 20 6 0 9 4 5 9 -3 6 1 16 8 23 12 11 12 15 -2 26 -13 10 -13 12 -1 10
8 -2 22 12 31 29 9 18 21 38 27 45 6 7 12 18 14 23 1 6 7 8 13 7 5 -2 7 0 3 4
-4 4 -2 14 5 22 9 13 9 14 0 8 -16 -9 -16 -1 -2 26 9 16 8 19 -3 15 -7 -2 -12
-10 -10 -16 1 -7 -2 -10 -7 -7 -5 3 -15 -2 -22 -11 -12 -15 -12 -16 3 -10 10
3 20 1 24 -5 4 -6 3 -8 -4 -4 -6 3 -14 1 -17 -4 -5 -7 -12 -5 -20 7 -7 10 -11
21 -9 24 2 4 -3 12 -10 18 -11 9 -14 9 -12 -1 1 -7 5 -19 10 -26 4 -8 3 -11
-5 -10 -6 2 -14 -4 -16 -12 -4 -12 -3 -12 5 -1 6 8 12 9 16 3 3 -6 0 -13 -6
-16 -7 -3 -2 -3 11 0 16 4 21 3 17 -5 -4 -6 -14 -11 -22 -11 -8 0 -12 -5 -9
-10 4 -6 10 -8 15 -5 5 3 12 0 16 -6 4 -7 3 -9 -3 -6 -6 4 -10 -1 -10 -11 0
-35 -3 -43 -14 -36 -8 5 -8 9 1 14 9 5 9 9 1 14 -6 4 -11 2 -11 -5 0 -6 -8 -3
-17 8 -10 10 -13 12 -8 3 9 -13 8 -13 -6 -2 -15 11 -17 9 -13 -24 3 -32 2 -35
-10 -19 -8 11 -18 15 -26 10 -9 -6 -11 -4 -5 5 6 9 4 11 -5 5 -9 -5 -11 -4 -6
3 5 8 2 10 -8 6 -19 -7 -20 5 -2 28 7 10 17 14 21 10 5 -4 5 1 2 10 -4 10 1
25 11 34 9 10 15 20 13 22 -2 3 5 14 15 26 11 12 19 33 19 48 -1 23 2 25 17
17 20 -11 38 -4 38 14 0 7 -4 6 -10 -3 -7 -12 -12 -12 -29 4 -11 10 -18 23
-15 27 3 5 0 9 -7 9 -7 0 -9 3 -6 6 4 4 13 1 21 -5 12 -10 15 -9 13 8 -1 15
-6 19 -19 15 -11 -3 -18 0 -19 8 -1 7 -2 20 -3 28 0 8 -7 14 -14 12 -8 -1 -11
2 -7 8 3 5 0 10 -7 10 -11 0 -10 2 0 9 11 7 11 9 -2 14 -9 4 -15 12 -14 19 2
7 -2 12 -9 13 -11 0 -53 47 -53 59 0 3 10 -5 23 -17 13 -12 21 -26 19 -31 -3
-5 -1 -7 4 -3 5 3 18 -1 29 -9 13 -10 15 -14 4 -14 -12 0 -12 -2 1 -9 8 -6 18
-7 24 -4 5 3 6 1 2 -5 -3 -6 2 -15 11 -21 14 -8 15 -10 3 -11 -13 0 -13 -2 0
-9 8 -6 18 -7 22 -5 4 3 8 0 8 -6 0 -7 -6 -10 -13 -7 -8 3 -14 -1 -14 -8 0
-11 5 -11 20 -3 13 6 17 6 13 0 -3 -6 1 -9 9 -8 22 3 31 16 11 16 -9 0 -15 4
-12 8 3 5 -4 14 -14 22 -10 8 -17 17 -14 22 3 4 -2 5 -11 2 -10 -4 -14 -2 -10
8 4 9 -4 20 -19 28 -14 7 -23 17 -20 22 3 5 2 8 -3 7 -16 -4 -43 13 -36 24 3
5 1 7 -4 4 -6 -4 -13 0 -16 8 -4 8 -15 12 -27 10 -18 -3 -20 -1 -10 10 8 10 8
15 -1 21 -8 4 -9 3 -5 -4 4 -7 0 -12 -10 -12 -10 0 -15 3 -11 6 7 8 -17 34
-32 34 -6 0 -11 5 -11 10 0 6 -7 10 -15 10 -8 0 -21 16 -29 35 -8 19 -20 35
-25 35 -6 0 -11 6 -11 13 0 23 -108 109 -150 120 -14 3 -28 7 -32 7 -4 1 -22
6 -40 11 -58 17 -271 62 -300 63 -10 0 -18 4 -18 9 0 5 -6 7 -12 4 -7 -2 -26
0 -43 5 -16 5 -39 11 -50 12 -11 2 -45 8 -75 14 -30 6 -66 14 -80 17 -14 2
-58 11 -98 19 -70 15 -133 25 -179 31 -13 2 -40 6 -60 9 -53 9 -126 16 -208
21 -38 2 -70 5 -70 6 0 9 -341 15 -410 7z m2208 -900 c-4 -7 -8 -16 -9 -20 -1
-5 -2 -11 -3 -14 0 -3 -6 -2 -12 1 -7 5 -4 14 7 26 19 22 29 25 17 7z m-58
-98 c3 -6 -1 -7 -9 -4 -18 7 -22 -11 -6 -21 8 -5 7 -12 -2 -22 -7 -9 -14 -28
-14 -42 -1 -14 -3 -26 -4 -26 -2 0 -4 -13 -5 -30 -2 -16 -4 -31 -5 -32 -1 -2
-3 -7 -4 -11 -3 -20 -85 -111 -89 -100 -2 7 5 23 16 35 20 23 16 46 -4 26 -13
-13 -39 -6 -39 9 0 5 5 6 10 3 6 -3 10 -2 10 4 0 5 -5 11 -11 13 -9 3 -9 10 0
26 9 17 9 22 -1 23 -10 0 -10 2 0 6 6 2 12 9 12 14 0 6 -5 7 -12 3 -7 -5 -8
-3 -2 7 5 8 9 22 10 32 1 9 3 19 4 22 1 3 4 10 5 15 1 6 3 11 5 13 1 1 3 10 5
20 5 27 13 32 28 19 8 -7 17 -9 21 -4 4 4 12 -1 17 -11 14 -24 30 -11 25 19
-4 21 -2 23 14 14 10 -6 22 -15 25 -20z m-25 -550 c0 -5 -2 -10 -4 -10 -3 0
-8 5 -11 10 -3 6 -1 10 4 10 6 0 11 -4 11 -10z m103 -187 c0 -4 11 -16 24 -26
13 -10 21 -22 18 -26 -2 -5 7 -19 21 -32 13 -12 22 -29 20 -36 -3 -7 0 -13 7
-13 8 0 7 -4 -3 -11 -12 -8 -12 -12 -2 -16 10 -4 9 -8 -5 -18 -15 -11 -16 -16
-5 -27 11 -11 12 -10 7 5 -9 21 8 23 25 2 7 -8 9 -15 6 -15 -4 0 -2 -10 4 -22
10 -21 10 -21 -3 -5 -12 15 -15 15 -20 3 -4 -9 4 -23 20 -36 14 -11 21 -20 16
-20 -5 0 -9 -19 -8 -42 1 -24 -1 -47 -4 -53 -10 -17 -10 -35 1 -41 5 -3 2 -14
-8 -25 -13 -15 -14 -22 -5 -33 8 -9 8 -16 2 -20 -9 -6 -8 -17 4 -66 2 -8 4
-19 4 -23 1 -5 5 -6 10 -2 6 3 15 -5 22 -17 12 -22 12 -22 -15 -5 -14 9 -38
24 -52 34 -39 25 -86 100 -89 144 -2 28 0 39 11 39 8 0 14 5 14 11 0 6 -8 9
-17 5 -12 -4 -10 0 5 10 12 9 22 21 22 26 0 5 -10 4 -22 -2 -22 -11 -22 -10
-4 4 14 12 16 16 5 16 -9 0 -10 3 -3 8 5 4 10 21 9 39 0 17 2 30 6 27 4 -2 10
0 14 6 3 5 2 10 -3 10 -5 0 -9 7 -9 16 0 14 2 14 14 -2 16 -21 17 -11 2 17 -5
11 -14 17 -19 14 -6 -3 -7 1 -4 10 4 9 13 14 21 11 9 -4 11 -2 7 6 -5 7 -3 8
5 3 8 -4 7 4 -4 24 -9 18 -20 29 -26 26 -5 -4 -9 -3 -8 2 1 4 0 10 -1 13 -2 6
-9 34 -13 56 -2 8 -9 19 -16 23 -10 6 -9 10 4 15 10 3 13 11 9 18 -4 7 -4 10
0 6 4 -3 8 -10 9 -15z m34 -159 c-9 -9 -28 6 -21 18 4 6 10 6 17 -1 6 -6 8
-13 4 -17z m312 -586 c6 -7 15 -13 19 -13 15 0 48 -31 47 -45 0 -8 5 -21 13
-29 9 -10 10 -17 1 -27 -6 -7 -7 -19 -3 -26 11 -17 14 -38 6 -37 -20 3 -28 -3
-29 -21 -1 -11 2 -22 8 -25 5 -4 5 -14 -1 -26 -6 -11 -16 -17 -22 -13 -6 4 -8
-1 -4 -13 6 -19 -18 -52 -33 -46 -3 2 -6 -3 -6 -10 0 -8 -8 -22 -18 -31 -11
-12 -17 -13 -17 -5 0 7 -6 4 -14 -7 -8 -10 -10 -21 -5 -25 5 -3 -2 -16 -16
-29 -14 -13 -25 -19 -25 -14 0 5 -4 3 -9 -5 -5 -8 -8 -22 -6 -32 2 -10 1 -18
-3 -18 -20 3 -28 -3 -29 -22 -1 -14 3 -19 12 -15 13 5 14 -22 0 -43 -3 -5 -1
-13 5 -16 7 -5 8 -11 1 -19 -12 -14 52 -103 71 -98 7 2 10 0 5 -4 -4 -4 5 -20
20 -36 15 -15 21 -28 15 -28 -7 0 -12 5 -12 11 0 5 -4 8 -9 5 -5 -3 -14 1 -21
9 -7 8 -9 15 -5 15 4 0 2 7 -5 15 -7 8 -17 12 -24 8 -6 -3 -8 -3 -5 0 3 4 -27
42 -67 84 -56 60 -71 83 -69 103 2 14 -1 30 -6 36 -6 8 -4 14 6 18 11 4 13 11
7 23 -13 26 -9 78 6 76 7 -2 12 4 12 12 0 8 9 20 19 27 11 6 17 19 14 27 -4
14 -4 14 6 1 6 -8 11 -12 11 -7 0 17 2 23 12 34 5 6 17 9 26 6 15 -6 15 -4 4
10 -12 13 -10 19 7 34 12 9 21 26 21 36 0 14 5 17 20 12 21 -7 25 13 5 27 -6
5 -5 8 3 8 7 0 11 4 7 9 -3 5 1 15 8 23 7 7 12 35 11 63 -1 67 7 80 35 53z
m15 -803 c11 -9 14 -15 7 -15 -7 0 -19 7 -27 15 -20 19 -5 19 20 0z m158 -169
c13 -16 33 -39 46 -52 16 -16 20 -24 11 -30 -7 -4 -9 -3 -5 4 3 6 -2 13 -13
17 -10 3 -21 15 -24 26 -4 14 -10 18 -19 13 -7 -4 -10 -4 -6 0 4 4 -9 21 -27
38 -19 16 -33 35 -32 41 1 6 -3 11 -9 12 -14 0 -48 35 -34 35 6 0 8 6 5 13 -8
14 75 -76 107 -117z m91 -109 c-5 -8 -8 -7 -11 1 -2 7 -9 9 -14 6 -7 -4 -8 -2
-4 4 4 6 13 9 21 6 8 -4 12 -11 8 -17z m-79 -537 c4 0 5 4 1 9 -3 5 -1 12 4
15 5 4 13 2 16 -4 4 -6 16 -8 26 -5 15 5 19 3 17 -8 -2 -9 2 -16 7 -16 6 0 9
6 7 13 -1 8 10 13 32 13 27 0 34 -4 33 -18 -1 -10 -8 -16 -18 -14 -10 2 -25
-7 -34 -21 -9 -14 -19 -22 -24 -20 -8 5 -56 -52 -56 -67 0 -4 -7 -12 -15 -17
-8 -5 -11 -10 -6 -10 5 0 3 -7 -4 -15 -7 -8 -9 -15 -4 -15 5 -1 -4 -12 -21
-25 -24 -20 -27 -27 -17 -37 11 -11 12 -9 6 6 -5 13 -3 17 6 14 8 -2 15 -16
15 -31 1 -14 -2 -24 -6 -21 -4 2 -10 0 -14 -6 -3 -5 0 -10 7 -10 11 0 10 -2 0
-9 -11 -6 -10 -10 4 -15 9 -3 14 -9 11 -12 -3 -4 1 -13 9 -21 8 -8 12 -19 9
-24 -4 -5 -1 -9 5 -9 6 0 9 -4 5 -9 -3 -5 -1 -12 5 -16 13 -8 33 -46 23 -44
-23 4 -23 -3 1 -22 14 -11 24 -25 20 -30 -3 -6 -1 -16 6 -24 8 -9 8 -15 0 -20
-7 -4 -7 -11 -2 -18 5 -7 7 -25 5 -42 -2 -16 -5 -50 -6 -75 -2 -25 -5 -49 -9
-55 -3 -5 -4 -31 -3 -57 3 -52 0 -56 -26 -32 -18 17 -39 12 -39 -9 0 -8 3 -7
9 2 8 12 13 11 34 -5 19 -16 21 -22 11 -31 -9 -9 -14 -9 -18 3 -3 8 -10 13
-15 10 -11 -7 -53 48 -44 58 3 3 0 6 -7 6 -9 0 -7 5 6 16 18 15 18 15 0 10
-16 -6 -17 -4 -6 9 11 13 15 13 22 3 7 -10 9 -10 5 2 -2 8 -11 14 -20 14 -20
-2 -15 22 9 41 16 13 16 14 2 9 -20 -7 -25 11 -7 22 8 4 7 9 -2 15 -10 6 -11
9 -1 9 6 0 12 5 12 11 0 5 -5 7 -12 3 -7 -5 -8 -3 -2 7 12 19 12 50 1 73 -6
13 -6 16 2 12 7 -4 11 1 11 13 0 11 -5 23 -10 26 -8 5 -7 11 1 21 9 11 8 14
-2 14 -8 0 -5 6 7 15 19 15 19 15 -1 31 -11 8 -19 20 -17 25 1 5 -2 9 -7 9 -5
0 -12 7 -15 16 -3 8 -2 12 4 9 6 -3 10 -2 10 3 0 6 -7 12 -15 16 -17 6 -20 36
-4 36 6 0 9 -7 6 -14 -4 -10 -1 -13 9 -9 23 9 -4 35 -28 27 -16 -5 -19 -2 -14
14 5 13 1 22 -11 26 -15 6 -15 9 -3 17 12 8 12 12 2 16 -10 4 -9 9 5 19 17 13
17 15 -1 29 -12 9 -15 15 -7 15 10 0 11 3 2 13 -6 8 -7 17 -3 21 4 4 7 11 7
15 0 16 79 115 83 103 2 -7 8 -10 12 -7 5 3 7 12 4 20 -5 11 -11 12 -25 4 -12
-6 -19 -6 -19 0 0 16 34 19 46 4 6 -7 14 -13 18 -13z m213 -5 c0 -8 -4 -12 -9
-9 -5 3 -6 10 -3 15 9 13 12 11 12 -6z m-327 -185 c0 -5 -5 -10 -11 -10 -5 0
-7 5 -4 10 3 6 8 10 11 10 2 0 4 -4 4 -10z m80 -240 c0 -5 -4 -10 -9 -10 -6 0
-13 5 -16 10 -3 6 1 10 9 10 9 0 16 -4 16 -10z m231 -583 c-16 -16 -14 -30 3
-24 10 4 13 1 9 -8 -3 -8 -9 -13 -13 -10 -13 8 -23 -16 -12 -27 7 -7 2 -21
-13 -44 -13 -19 -26 -34 -29 -32 -10 5 -41 -46 -41 -67 0 -12 -7 -20 -17 -20
-10 0 -18 -4 -18 -10 -2 -14 -42 -55 -49 -50 -4 2 -12 -5 -19 -16 -9 -14 -9
-19 -1 -19 7 0 4 -8 -6 -20 -10 -11 -15 -20 -11 -20 4 0 4 -6 -1 -12 -4 -7 -8
-17 -8 -23 -1 -5 -6 -9 -13 -7 -7 1 -12 -2 -12 -8 0 -5 5 -10 11 -10 7 0 0 -9
-14 -20 -28 -23 -37 -25 -37 -9 0 5 4 8 9 5 5 -3 15 2 22 11 10 11 10 14 2 9
-9 -5 -11 -2 -7 11 4 13 3 15 -4 5 -5 -8 -12 -14 -16 -13 -10 0 -46 47 -46 60
0 18 19 12 31 -10 9 -17 8 -20 -2 -14 -8 5 -10 4 -5 -3 4 -7 15 -12 24 -12 12
0 13 3 4 12 -17 17 -15 31 4 24 9 -3 12 -2 9 5 -4 6 -14 8 -22 5 -9 -4 -11 -2
-7 6 5 7 3 8 -6 3 -9 -5 -11 -4 -6 3 5 8 2 10 -8 6 -19 -7 -21 7 -4 24 9 9 9
12 -2 12 -11 1 -10 3 3 11 9 6 14 16 11 22 -4 7 -4 9 1 5 5 -5 15 1 22 12 8
11 19 18 24 14 6 -3 9 1 7 9 -2 8 7 24 20 35 13 11 23 23 22 26 0 4 7 17 16
31 10 16 21 22 32 18 14 -6 15 -4 4 9 -10 12 -10 17 1 27 8 6 18 7 22 3 5 -4
5 1 2 11 -5 12 -3 16 5 11 7 -5 9 -2 5 8 -8 23 13 41 31 26 11 -10 17 -8 29 7
7 11 18 20 23 20 5 0 14 5 21 12 7 7 16 10 21 6 6 -3 5 -10 -1 -16z m-71 -17
c0 -5 -4 -10 -10 -10 -5 0 -10 5 -10 10 0 6 5 10 10 10 6 0 10 -4 10 -10z
m-236 -406 c3 -9 10 -13 15 -9 5 3 13 0 17 -6 4 -7 3 -9 -4 -5 -15 9 -27 -13
-13 -27 7 -7 16 -5 31 8 18 16 23 17 30 5 5 -9 5 -19 -2 -27 -6 -7 -7 -13 -3
-13 4 0 3 -6 -3 -13 -8 -9 -6 -16 8 -24 15 -10 18 -26 11 -50 -4 -11 1 -18 12
-18 7 0 11 -13 10 -33 -1 -18 2 -30 6 -27 5 2 14 -2 20 -9 9 -11 9 -16 0 -22
-9 -5 -7 -11 6 -21 12 -8 14 -13 6 -13 -8 0 -2 -9 13 -21 14 -11 23 -25 20
-30 -4 -6 -11 -6 -20 2 -21 17 -17 -5 4 -24 10 -10 22 -14 27 -10 5 5 -2 -6
-16 -24 -27 -36 -34 -39 -42 -19 -4 11 -1 13 11 9 15 -6 14 -3 -2 15 -11 12
-16 22 -13 22 3 0 0 12 -8 26 -7 15 -12 35 -10 46 3 14 0 18 -11 14 -9 -3 -12
-1 -9 4 3 6 1 10 -5 10 -6 0 -8 5 -5 10 3 6 1 10 -6 10 -7 0 -10 3 -6 6 3 4 0
12 -7 20 -8 7 -12 27 -10 45 3 25 1 29 -9 20 -10 -8 -14 -7 -15 2 -2 27 -9 45
-26 71 -17 27 -17 27 3 17 26 -14 28 -14 28 4 0 9 -6 14 -13 11 -16 -6 -38 19
-29 34 3 5 0 10 -7 10 -9 0 -9 3 2 10 8 5 10 10 4 10 -7 0 -14 7 -17 14 -4 10
-1 13 8 10 7 -3 16 -12 19 -20z m-4324 -139 c58 -14 112 -28 120 -32 8 -3 20
-7 25 -8 6 -2 75 -26 153 -54 79 -28 154 -53 167 -55 14 -3 28 -7 32 -9 5 -3
30 -8 57 -11 27 -4 52 -9 56 -11 8 -5 259 -18 600 -30 41 -2 75 -4 75 -5 0 -1
34 -3 75 -5 41 -2 107 -6 145 -10 39 -3 95 -8 125 -10 120 -8 207 -15 255 -20
28 -3 79 -7 115 -10 36 -3 88 -8 115 -10 28 -3 75 -8 105 -10 56 -5 106 -10
195 -20 56 -6 152 -15 205 -20 80 -7 130 -15 154 -25 44 -16 79 -55 80 -89 0
-17 5 -31 9 -31 5 0 5 -6 0 -12 -4 -7 -8 -19 -9 -26 -2 -14 -39 -69 -72 -108
-9 -11 -51 -45 -92 -74 -41 -30 -85 -66 -98 -80 -21 -23 -55 -77 -57 -90 0 -3
-3 -9 -6 -15 -18 -28 -20 -77 -5 -100 16 -24 18 -25 114 -19 155 10 252 3 252
-17 0 -5 5 -9 11 -9 24 0 54 -47 62 -97 7 -45 -12 -109 -71 -241 l-50 -112
127 -128 c69 -70 163 -162 209 -204 45 -43 82 -82 82 -88 0 -5 4 -10 9 -10 12
0 71 -121 71 -146 0 -11 3 -24 7 -28 10 -10 11 -46 1 -46 -5 0 -98 87 -206
194 -308 304 -484 466 -622 576 -25 19 -55 45 -68 58 -12 12 -25 22 -28 22 -5
0 -92 68 -104 81 -3 3 -27 21 -55 40 -27 18 -52 37 -55 40 -3 3 -41 30 -85 60
-44 30 -82 57 -85 60 -9 11 -280 169 -289 169 -5 0 -16 6 -23 13 -7 7 -51 30
-98 51 -98 45 -153 69 -160 71 -11 3 -66 26 -85 35 -24 12 -352 121 -377 125
-10 2 -23 7 -29 11 -6 4 -25 10 -43 14 -17 5 -103 29 -191 55 -88 26 -168 49
-178 51 -10 2 -27 6 -37 9 -10 3 -27 8 -37 10 -10 2 -43 11 -75 19 -31 8 -68
17 -83 20 -15 3 -41 9 -58 15 -18 5 -45 12 -62 15 -35 5 -194 60 -246 85 -20
10 -66 26 -102 37 -66 18 -72 24 -82 73 -11 56 52 154 93 145 9 -2 64 -15 122
-29z m4545 -283 c1 -4 6 -17 13 -29 11 -19 10 -22 -3 -17 -20 8 -19 -5 2 -29
17 -18 17 -19 -2 -33 -10 -8 -15 -14 -9 -14 5 0 2 -6 -6 -13 -8 -7 -16 -19
-18 -27 -2 -8 -10 -19 -18 -23 -12 -7 -13 -12 -3 -23 11 -13 9 -15 -7 -13 -3
0 -12 -8 -20 -18 -13 -16 -13 -16 -8 0 4 10 1 17 -6 17 -7 0 -10 6 -7 13 3 8
-1 14 -8 14 -7 0 -11 -6 -8 -14 3 -7 1 -13 -5 -13 -12 0 -10 18 6 45 7 12 12
15 12 6 0 -11 3 -11 15 -1 11 9 12 16 5 25 -7 8 -4 17 10 30 12 10 18 25 15
32 -2 8 -1 12 4 9 16 -10 35 22 22 37 -6 8 -7 17 -3 21 4 4 8 12 8 17 3 20 4
22 12 15 4 -4 7 -11 7 -14z m-670 -451 c3 -5 2 -12 -3 -15 -5 -3 -9 1 -9 9 0
17 3 19 12 6z m44 -68 c-6 -7 -15 -10 -20 -7 -13 8 -3 21 15 21 12 0 13 -4 5
-14z m-35 -24 c3 -2 -4 -15 -15 -29 -16 -20 -18 -20 -10 -4 7 15 7 24 -1 32
-8 8 -6 10 5 8 9 -1 18 -4 21 -7z m-53 -72 c-6 -8 -7 -18 -3 -22 4 -5 2 -5 -5
-1 -6 3 -16 -2 -22 -11 -6 -10 -11 -14 -11 -10 0 12 34 56 44 57 5 0 3 -6 -3
-13z m-62 -79 c-8 -14 -14 -17 -22 -9 -7 7 -6 15 3 25 17 22 32 9 19 -16z
m-51 -65 c-7 -9 -14 -10 -23 -3 -6 5 -16 6 -20 2 -5 -4 -6 -2 -2 4 3 5 17 10
31 10 20 0 23 -3 14 -13z m-67 -46 c-15 -15 -43 -18 -34 -4 4 7 8 15 9 20 1 4
2 10 3 13 0 4 8 1 16 -6 11 -9 13 -16 6 -23z m-62 -28 c8 1 0 -9 -17 -24 -18
-15 -30 -30 -27 -35 2 -4 -4 -15 -14 -25 -11 -9 -18 -25 -16 -35 2 -10 -6 -27
-18 -37 -22 -18 -22 -18 -6 2 9 11 15 30 13 43 -2 13 1 22 9 22 9 0 9 2 -1 9
-11 6 -10 10 5 15 17 7 17 8 0 21 -16 11 -16 13 -2 19 9 3 13 10 10 16 -12 19
5 31 28 18 12 -7 28 -11 36 -9z m-173 -184 c-1 -8 -5 -17 -8 -21 -5 -4 -4 16
1 34 3 9 9 -1 7 -13z m-4 -62 c-1 -4 7 -16 15 -25 12 -14 19 -15 30 -7 15 13
14 14 17 -23 2 -15 -2 -26 -8 -25 -6 1 -11 -6 -11 -15 0 -9 -3 -19 -6 -23 -4
-3 -6 5 -5 17 1 13 -7 33 -18 46 -11 13 -21 34 -22 48 0 13 1 22 3 20 3 -2 5
-8 5 -13z m89 -197 c-6 -7 -7 -17 -3 -21 4 -5 1 -5 -6 -1 -9 6 -10 11 -3 20 6
7 7 17 3 21 -4 5 -1 5 6 1 9 -6 10 -11 3 -20z m35 -131 c1 -8 -3 -18 -8 -22
-6 -3 -8 -1 -4 5 3 6 2 13 -4 17 -6 4 -8 11 -4 16 7 12 17 4 20 -16z m21 -52
c-4 -3 -1 -13 6 -22 11 -14 10 -14 -5 -2 -16 12 -16 31 -1 31 4 0 3 -3 0 -7z
m47 -104 c-3 -6 2 -19 12 -30 9 -10 13 -19 9 -19 -4 0 0 -10 11 -22 l19 -23
-22 19 c-13 10 -20 22 -18 26 3 4 -2 13 -9 20 -15 12 -18 53 -4 44 5 -3 6 -10
2 -15z m87 -156 c13 -16 12 -17 -3 -4 -10 7 -18 15 -18 17 0 8 8 3 21 -13z
m125 -202 c-3 -4 3 -16 14 -26 11 -10 17 -21 15 -26 -3 -4 -1 -10 5 -14 5 -3
15 -16 21 -28 8 -14 1 -10 -19 12 -18 18 -30 37 -27 41 3 4 -2 13 -10 20 -13
11 -12 30 1 30 3 0 3 -4 0 -9z"/>
<path d="M8279 9766 c-1 -3 -2 -9 -3 -13 -1 -5 -5 -14 -9 -20 -5 -7 -5 -13 -1
-13 3 0 2 -6 -3 -12 -5 -7 -9 -31 -8 -53 1 -22 -2 -48 -7 -57 -5 -10 -4 -19 3
-23 6 -4 8 -14 5 -24 -5 -14 -4 -13 8 2 12 15 15 16 26 2 12 -14 15 -14 31 1
11 10 17 19 14 22 -3 3 1 12 8 20 9 13 9 14 0 8 -14 -8 -18 6 -5 18 4 4 8 12
8 17 1 5 3 10 4 12 1 1 3 14 4 28 0 14 7 33 14 42 8 9 9 18 3 21 -5 4 -13 1
-16 -4 -5 -8 -13 -6 -26 6 -10 9 -19 14 -19 9 0 -4 -7 -2 -15 5 -8 7 -16 10
-16 6z m31 -21 c0 5 8 1 18 -8 15 -13 21 -14 32 -4 9 7 8 4 -1 -8 -9 -11 -15
-30 -14 -43 1 -13 -2 -25 -7 -28 -4 -3 -6 -9 -3 -14 3 -4 -2 -13 -10 -20 -16
-13 -21 -35 -6 -26 11 7 9 -13 -3 -32 -6 -11 -12 -10 -28 5 -11 10 -23 17 -27
17 -3 -1 -4 3 -2 10 2 6 5 34 6 61 2 28 4 51 5 53 1 1 4 7 5 12 1 6 4 13 5 18
1 4 2 11 1 16 -1 5 5 4 13 -4 9 -7 16 -9 16 -5z"/>
<path d="M8289 9734 c-1 -2 -3 -8 -4 -14 -1 -5 -4 -11 -5 -12 -7 -9 -5 -58 3
-58 5 0 4 -7 -3 -15 -7 -8 -9 -15 -6 -15 4 0 2 -10 -5 -21 -6 -12 -7 -19 -1
-15 5 3 15 -1 22 -9 7 -8 16 -12 22 -9 5 3 4 12 -3 20 -9 11 -8 18 4 32 9 9
16 20 16 25 1 4 1 8 2 10 6 19 3 70 -5 75 -13 8 -36 12 -37 6z m37 -25 c0 -8
-4 -20 -9 -26 -6 -9 -5 -13 4 -13 11 0 11 -2 -1 -10 -8 -5 -11 -12 -7 -16 4
-4 0 -16 -9 -26 -14 -15 -15 -20 -3 -35 13 -16 12 -17 -3 -4 -15 11 -18 35 -8
61 2 3 1 10 0 15 -8 38 -8 45 1 50 5 4 7 10 4 15 -3 4 3 7 12 6 10 -2 18 -9
19 -17z"/>
<path d="M8303 9708 c-11 -19 -12 -37 -2 -44 5 -3 9 -2 8 3 -1 4 0 10 1 13 4
12 8 40 5 40 -2 0 -7 -6 -12 -12z"/>
<path d="M8274 9508 l-19 -23 23 19 c21 18 27 26 19 26 -2 0 -12 -10 -23 -22z"/>
<path d="M8474 9006 c15 -12 16 -16 5 -16 -9 0 -10 -3 -3 -8 6 -4 10 -15 8
-24 -1 -10 9 -27 23 -38 14 -11 23 -20 19 -20 -4 0 -2 -9 3 -19 8 -14 7 -22
-3 -30 -7 -6 -15 -10 -17 -8 -2 1 0 -3 6 -8 17 -17 17 -37 -1 -56 -20 -22 -25
-68 -11 -87 7 -9 7 -16 -1 -24 -6 -6 -8 -17 -5 -24 3 -8 -3 -17 -12 -20 -13
-5 -14 -9 -3 -15 10 -7 10 -9 -2 -9 -13 0 -13 -1 0 -10 13 -9 13 -11 0 -20
-11 -7 -11 -10 -2 -10 7 0 11 -4 8 -9 -3 -5 6 -21 21 -37 15 -16 26 -30 24
-32 -1 -2 9 -12 23 -23 28 -22 27 -27 12 41 -3 11 0 22 5 26 6 4 6 11 -2 20
-9 11 -8 18 5 33 10 11 13 22 8 25 -8 5 -9 41 -2 41 2 0 3 24 4 53 2 40 -3 57
-16 69 -16 15 -17 18 -3 39 11 17 12 25 3 30 -6 4 -8 3 -4 -4 3 -6 2 -13 -3
-16 -13 -9 -34 21 -25 36 17 28 11 73 -13 100 -14 14 -23 29 -21 33 1 4 -8 14
-22 22 -23 14 -24 14 -6 -1z m66 -90 c0 -6 -5 -4 -10 4 -5 8 -10 11 -10 6 0
-15 -24 12 -26 30 -2 12 3 11 22 -7 13 -12 24 -27 24 -33z m6 -121 c-2 -7 3
-20 13 -29 12 -11 17 -29 15 -68 -1 -29 -2 -53 -4 -53 -7 0 -6 -36 2 -41 5 -3
2 -14 -8 -25 -13 -15 -14 -22 -5 -33 8 -9 8 -16 2 -20 -10 -6 -8 -35 4 -59 4
-6 0 -4 -8 5 -8 10 -17 14 -21 10 -4 -4 -6 -2 -5 3 2 6 -5 20 -16 32 -23 27
-31 60 -9 42 8 -7 14 -7 14 -1 0 5 -6 15 -14 21 -15 13 -16 28 -2 49 4 7 5 16
2 19 -3 4 1 14 9 23 14 15 14 18 2 23 -20 7 -14 62 8 87 9 10 14 24 9 31 -5 8
-3 10 5 5 7 -5 10 -14 7 -21z"/>
<path d="M8524 8769 c-4 -8 -3 -10 4 -5 7 4 12 2 12 -3 0 -6 -6 -11 -13 -11
-8 0 -14 -7 -14 -15 0 -8 4 -12 9 -9 4 3 8 0 8 -5 0 -6 -5 -11 -12 -11 -6 0
-4 -6 6 -13 16 -12 16 -14 2 -26 -9 -7 -13 -17 -10 -23 3 -5 1 -14 -4 -21 -14
-17 -13 -29 5 -49 16 -18 9 -42 -10 -32 -7 4 -1 -5 12 -19 24 -27 37 -35 26
-18 -3 5 -1 13 5 16 8 5 7 11 -1 21 -9 11 -8 18 5 32 9 10 13 22 9 26 -12 12
-13 46 -1 46 6 0 3 7 -8 15 -14 11 -14 13 -3 9 13 -4 16 1 15 25 0 17 -5 31
-9 31 -5 0 -7 -7 -3 -15 8 -22 -2 -18 -15 6 -6 12 -7 19 -2 16 20 -12 30 8 13
26 -14 14 -20 15 -26 6z m27 -76 c13 -16 12 -17 -3 -4 -10 7 -18 15 -18 17 0
8 8 3 21 -13z m-6 -55 c-1 -13 2 -28 6 -34 6 -7 4 -16 -5 -23 -21 -18 -38 13
-26 47 4 8 7 24 9 35 3 19 18 -4 16 -25z m-1 -109 c-3 -5 -10 -7 -15 -3 -5 3
-7 10 -3 15 3 5 10 7 15 3 5 -3 7 -10 3 -15z"/>
<path d="M8529 8628 c-10 -32 2 -61 15 -39 4 5 2 12 -4 16 -6 4 -8 11 -5 16 4
5 4 9 1 9 -3 0 -6 -1 -7 -2z"/>
<path d="M8800 8280 c12 -8 12 -10 1 -10 -8 0 -2 -10 14 -21 22 -18 29 -20 36
-8 6 9 9 10 9 2 0 -21 -21 -26 -39 -9 -25 23 -30 20 -27 -16 2 -18 -2 -39 -8
-47 -6 -8 -11 -28 -11 -45 0 -23 -5 -31 -18 -30 -9 1 -15 -2 -12 -6 2 -4 -7
-17 -20 -30 -13 -13 -21 -28 -17 -34 10 -17 11 -36 2 -36 -5 0 -12 5 -15 10
-4 6 -11 8 -16 4 -5 -3 -7 -9 -4 -14 3 -5 -7 -18 -22 -30 -16 -12 -28 -25 -28
-28 0 -14 -17 -32 -25 -27 -9 6 -6 -62 3 -72 4 -3 1 -13 -6 -21 -10 -12 -9
-16 1 -20 9 -3 10 -8 3 -16 -17 -21 -7 -42 58 -112 35 -38 52 -53 37 -32 -17
23 -23 39 -16 43 6 3 7 12 3 18 -10 15 -11 31 -2 37 4 3 -5 14 -19 24 -14 11
-22 15 -19 9 3 -5 0 -10 -8 -10 -8 0 -15 3 -16 6 0 3 -2 14 -4 23 -2 9 3 22
11 28 15 13 34 5 33 -13 0 -9 -2 -9 -6 1 -2 6 -10 12 -15 12 -6 0 -8 -3 -5 -7
4 -3 2 -12 -3 -18 -8 -9 -4 -12 14 -12 14 0 25 2 24 6 -2 18 3 31 11 29 5 -2
9 -1 8 2 -1 13 25 50 32 45 10 -6 33 19 29 31 -4 13 22 55 30 50 5 -3 14 -1
22 5 13 7 13 9 1 9 -11 0 -10 5 4 20 10 11 21 17 26 15 14 -9 21 15 9 30 -12
14 -8 17 16 14 13 -1 23 25 14 36 -13 16 -6 43 16 59 18 14 18 15 1 22 -16 6
-16 8 -2 24 14 15 14 18 0 30 -8 7 -13 16 -10 20 6 10 -25 51 -35 45 -4 -3
-13 2 -20 10 -7 8 -18 15 -24 15 -6 0 -4 -5 4 -10z m45 -22 c5 4 5 1 1 -6 -6
-10 -11 -10 -22 -1 -8 6 -14 14 -14 16 0 3 6 0 13 -6 8 -6 18 -7 22 -3z m12
-37 c9 8 14 9 10 3 -4 -7 0 -17 8 -24 14 -11 14 -15 -1 -31 -16 -17 -16 -19 0
-25 15 -6 15 -7 0 -19 -20 -14 -27 -45 -14 -61 7 -7 1 -15 -16 -23 -22 -10
-24 -14 -14 -26 7 -9 10 -18 6 -22 -3 -3 -6 0 -6 7 0 7 -10 0 -22 -16 -13 -16
-22 -32 -20 -37 1 -5 -2 -6 -7 -2 -12 7 -46 -41 -46 -64 0 -9 -6 -16 -13 -16
-16 0 -43 -35 -37 -46 6 -9 -15 -6 -33 5 -8 5 -22 1 -35 -11 -14 -12 -18 -13
-9 -2 6 9 9 18 7 21 -3 3 -8 16 -10 29 -5 24 21 62 36 53 5 -3 9 0 9 5 0 6 -5
11 -11 11 -6 0 3 12 20 26 18 14 28 31 24 37 -3 7 3 4 14 -5 11 -10 22 -18 25
-18 7 0 3 48 -5 56 -12 12 33 53 51 47 10 -4 13 -2 8 5 -3 6 -2 13 3 16 5 3 7
19 6 36 -1 16 3 34 10 40 7 6 11 24 10 41 -3 29 -2 29 16 13 16 -14 21 -15 36
-3z m-215 -476 c16 0 23 -6 23 -20 0 -11 4 -25 8 -32 4 -6 3 -14 -1 -17 -13
-8 -65 50 -69 77 -2 17 -1 19 7 7 5 -8 20 -15 32 -15z"/>
<path d="M8815 8201 c2 -11 -2 -25 -9 -31 -8 -6 -12 -24 -11 -40 1 -17 -1 -33
-6 -35 -4 -3 -6 -14 -4 -25 4 -21 -9 -27 -20 -9 -5 7 -13 4 -26 -7 -10 -9 -15
-22 -12 -28 11 -17 11 -56 1 -62 -5 -3 -15 -1 -22 5 -15 13 -51 -20 -51 -47 0
-9 -4 -17 -10 -17 -22 -1 -35 -18 -31 -42 6 -28 16 -44 16 -23 0 9 5 8 19 -4
12 -11 21 -14 26 -7 3 6 3 11 -2 11 -4 0 4 8 17 17 14 10 28 17 33 15 4 -1 7
3 7 9 0 6 -8 8 -17 5 -16 -5 -16 -5 -2 6 34 28 109 120 104 128 -3 5 4 15 16
24 19 13 20 18 9 31 -10 12 -10 15 1 15 8 0 6 5 -6 14 -18 13 -32 51 -14 40 5
-3 8 0 7 7 -2 6 4 14 12 16 12 4 12 3 1 -5 -9 -7 -10 -12 -2 -16 15 -10 3 -28
-12 -20 -9 5 -9 4 0 -6 9 -10 15 -10 27 3 11 10 13 18 5 22 -7 5 -5 13 6 25
14 15 14 18 0 30 -14 11 -19 7 -16 -12 0 -5 -3 -8 -9 -8 -5 0 -10 6 -10 14 0
8 -4 17 -9 21 -6 3 -8 -3 -6 -14z m50 -10 c3 -5 2 -12 -3 -15 -5 -3 -9 1 -9 9
0 17 3 19 12 6z m-35 -15 c0 -2 -8 -10 -17 -17 -16 -13 -17 -12 -4 4 13 16 21
21 21 13z m-5 -86 c-3 -5 0 -12 5 -15 8 -5 5 -14 -6 -26 -10 -11 -19 -27 -20
-36 -4 -23 -63 -81 -81 -79 -9 0 -17 -5 -19 -12 -1 -7 0 -8 3 -2 2 5 9 7 15 4
5 -3 0 -13 -11 -21 -12 -8 -19 -18 -16 -23 3 -5 -4 -14 -15 -20 -12 -6 -18
-16 -14 -23 4 -7 -2 -4 -13 6 -11 9 -22 15 -24 12 -3 -2 -5 5 -6 15 -1 11 2
22 8 25 5 3 6 -1 2 -10 -5 -15 -3 -15 14 -4 11 6 19 21 18 33 -2 31 24 59 42
45 28 -24 53 31 30 67 -4 7 0 17 8 24 12 10 16 9 21 -4 9 -23 34 -1 29 24 -2
11 1 22 6 25 5 4 6 12 2 18 -4 7 0 6 10 -2 9 -7 15 -17 12 -21z"/>
<path d="M8809 8095 c-1 -3 -2 -13 -3 -23 -2 -27 -25 -52 -42 -45 -7 3 -11 10
-7 16 4 6 1 7 -7 2 -10 -6 -7 -12 11 -26 13 -10 20 -21 16 -25 -4 -4 -7 -2 -7
4 0 7 -4 12 -9 12 -5 0 -8 -8 -6 -17 1 -10 -5 -27 -13 -38 -9 -11 -1 -6 17 11
18 17 33 38 35 47 1 9 10 25 20 36 11 12 14 21 6 26 -5 3 -8 11 -5 16 4 5 4 9
1 9 -3 0 -7 -2 -7 -5z"/>
<path d="M8684 7948 c-5 -7 -9 -24 -10 -38 -2 -37 -3 -40 -11 -37 -5 1 -9 -1
-10 -5 -3 -9 1 -10 22 -2 8 3 13 10 10 14 -3 5 -1 11 5 15 6 4 8 11 4 16 -3 5
-1 16 6 24 7 8 7 15 1 19 -5 4 -13 1 -17 -6z"/>
<path d="M8610 7735 c0 -1 14 -14 32 -31 18 -16 27 -22 21 -14 -6 8 -9 22 -8
31 2 10 -5 15 -21 15 -13 0 -24 -1 -24 -1z"/>
<path d="M8896 7407 c3 -10 9 -15 12 -12 3 3 0 11 -7 18 -10 9 -11 8 -5 -6z"/>
<path d="M8950 7345 c13 -14 26 -25 28 -25 3 0 -5 11 -18 25 -13 14 -26 25
-28 25 -3 0 5 -11 18 -25z"/>
<path d="M9013 6683 c8 -13 -26 -37 -53 -38 -9 0 -14 -7 -12 -19 2 -10 -1 -15
-6 -12 -9 5 -46 -39 -47 -56 0 -3 -3 -10 -7 -14 -4 -4 -3 -13 3 -21 6 -7 8
-13 4 -13 -4 0 -2 -7 5 -15 6 -8 8 -20 4 -27 -11 -17 -11 -40 -1 -55 5 -7 5
-18 1 -24 -4 -8 -3 -9 5 -5 6 4 20 2 29 -5 9 -7 14 -9 9 -4 -4 4 1 17 10 28
10 11 13 17 7 14 -7 -4 -18 0 -25 9 -11 14 -10 19 11 36 14 11 26 24 26 29 1
5 3 11 4 14 1 3 3 10 4 15 0 6 8 15 16 20 10 7 11 10 3 10 -7 0 -13 5 -13 11
0 5 4 8 9 5 4 -3 16 3 26 14 10 11 14 20 10 20 -5 0 0 6 10 14 11 8 23 12 26
10 4 -2 14 8 23 21 9 14 21 23 26 20 5 -3 11 -2 14 3 2 4 -6 8 -19 8 -13 0
-22 -3 -20 -6 2 -3 -3 -14 -11 -25 -8 -11 -14 -13 -14 -6 0 8 -6 11 -15 7 -13
-5 -14 -2 -4 15 8 16 8 20 0 14 -7 -4 -19 -1 -28 7 -11 8 -14 9 -10 1z m20
-40 c-5 -13 -2 -15 13 -10 18 7 18 6 -1 -8 -11 -9 -20 -20 -20 -25 0 -4 -4
-12 -8 -17 -8 -8 -12 -9 -38 -12 -8 -1 -8 -5 0 -15 8 -10 9 -16 1 -21 -6 -3
-8 -10 -5 -15 3 -5 -3 -13 -12 -19 -11 -6 -13 -11 -5 -11 7 0 1 -11 -15 -24
-31 -27 -53 -24 -28 4 15 16 15 18 0 24 -9 3 -14 10 -10 15 3 5 1 13 -5 16 -8
5 -7 12 2 22 7 9 11 17 8 17 -2 1 3 12 13 26 9 13 17 21 17 16 0 -5 7 -3 15 4
13 11 13 15 3 23 -10 7 -9 8 3 4 8 -3 26 3 39 13 28 21 42 17 33 -7z m-94
-226 c6 -8 8 -17 4 -20 -7 -8 -33 11 -33 24 0 13 16 11 29 -4z"/>
<path d="M9014 6645 c-4 -8 -9 -13 -13 -11 -3 2 -26 -14 -51 -36 -25 -22 -39
-37 -32 -34 6 4 12 3 12 -2 0 -6 -8 -13 -17 -17 -17 -6 -17 -7 1 -21 14 -10
16 -14 5 -14 -10 -1 -9 -4 4 -11 18 -10 18 -12 0 -32 l-18 -22 22 19 c13 10
20 22 18 27 -3 4 3 12 12 18 14 8 15 11 3 11 -12 0 -11 3 3 11 18 11 14 29 -6
29 -7 0 -6 -4 3 -10 12 -7 10 -9 -7 -7 -14 1 -19 5 -13 12 4 5 10 15 12 20 1
6 16 10 33 10 17 0 31 6 31 13 1 6 2 13 4 15 4 4 7 47 3 47 -2 0 -6 -7 -9 -15z
m-4 -30 c-5 -7 -7 -14 -4 -18 5 -5 -4 -4 -35 2 -10 2 21 28 34 28 10 0 12 -4
5 -12z m-64 -92 c-1 -7 -6 -16 -11 -20 -4 -4 -5 -3 -1 4 3 6 -2 16 -11 22 -16
9 -16 10 3 8 12 0 21 -7 20 -14z"/>
<path d="M8949 6345 c-5 -24 -1 -49 9 -53 7 -2 12 1 12 8 0 6 6 8 13 5 6 -4 2
2 -11 13 -15 14 -18 22 -10 25 10 4 10 6 1 6 -7 1 -13 -1 -14 -4z"/>
<path d="M8962 6283 c-8 -3 -5 -10 10 -23 19 -15 20 -20 9 -34 -7 -9 -10 -16
-6 -16 4 0 3 -6 -3 -13 -7 -8 -6 -18 4 -31 8 -11 10 -24 5 -30 -11 -14 -10
-46 1 -46 4 0 8 -5 8 -11 0 -5 -4 -8 -8 -5 -5 3 -8 -9 -7 -27 1 -18 -3 -38 -9
-46 -8 -11 -8 -13 1 -8 20 12 25 -12 4 -24 -19 -12 -18 -13 2 -30 20 -16 21
-19 6 -36 -13 -16 -15 -24 -10 -49 0 -4 8 -1 16 6 13 10 19 10 34 -4 17 -16
18 -14 16 26 -2 24 0 48 3 53 4 6 7 30 9 55 1 25 4 60 6 78 3 23 0 35 -9 39
-12 4 -11 8 3 18 17 13 17 14 0 20 -13 5 -15 11 -7 20 7 9 6 16 -5 25 -8 7
-15 9 -15 4 0 -5 -4 -2 -10 6 -5 9 -5 19 1 27 8 8 5 19 -8 37 -19 27 -21 27
-41 19z m42 -54 c-12 -20 -14 -39 -3 -40 5 -1 14 -3 19 -4 6 -1 13 -3 16 -4 4
0 1 -8 -6 -16 -10 -12 -9 -16 5 -21 16 -7 16 -8 -1 -17 -16 -9 -16 -10 1 -23
10 -8 13 -14 7 -14 -7 0 -12 -5 -12 -11 0 -5 4 -8 9 -4 6 3 8 -4 4 -17 -3 -13
-6 -44 -7 -70 -1 -29 -8 -54 -20 -67 -16 -17 -16 -21 -4 -26 8 -3 15 -13 15
-22 0 -14 -1 -14 -12 0 -11 15 -13 15 -28 0 -14 -15 -15 -15 -13 0 1 9 9 24
19 34 15 18 15 20 -5 32 l-22 14 29 23 c16 13 26 26 22 30 -4 4 -2 13 5 21 6
7 8 16 4 20 -3 3 -6 1 -6 -6 0 -7 -4 -10 -9 -6 -5 3 -13 0 -17 -6 -4 -7 -3 -9
2 -6 6 3 11 -3 11 -14 1 -12 -3 -19 -10 -16 -13 4 -17 56 -5 72 8 12 6 35 -5
52 -4 6 -3 15 3 18 8 5 6 14 -4 30 -11 17 -12 25 -3 34 6 6 7 11 3 11 -5 0 -3
7 4 15 10 13 9 19 -6 38 l-18 22 23 -21 c16 -15 21 -27 15 -35z"/>
<path d="M8990 6178 c17 -14 19 -27 8 -44 -4 -6 -4 -14 -1 -18 12 -11 12 -40
1 -53 -8 -10 -5 -12 15 -11 19 2 23 5 16 15 -6 7 -8 17 -5 22 4 5 2 13 -4 16
-8 5 -8 11 0 20 8 10 8 15 0 20 -8 5 -7 12 2 23 7 10 9 14 4 10 -5 -4 -18 -3
-30 3 -18 9 -19 8 -6 -3z"/>
<path d="M9001 5971 l-24 -19 21 -11 c12 -6 22 -10 23 -9 1 4 6 58 5 58 -1 0
-12 -9 -25 -19z"/>
<path d="M8994 5828 c-4 -7 -4 -10 1 -6 4 4 15 2 24 -5 14 -11 14 -10 2 6 -16
20 -18 21 -27 5z"/>
<path d="M9178 5653 c-22 -30 -58 -46 -73 -33 -16 13 -22 4 -19 -27 0 -13 -3
-24 -7 -24 -5 -1 -13 -3 -19 -4 -5 -1 -13 -3 -16 -4 -4 0 -1 -7 5 -15 9 -10 8
-16 -4 -26 -12 -10 -15 -10 -15 1 0 12 -35 -29 -35 -41 0 -15 -33 -49 -41 -42
-4 4 -2 -1 5 -10 9 -12 10 -18 2 -18 -6 0 -14 -1 -18 -2 -9 -2 -48 -49 -48
-58 0 -3 -4 -11 -9 -19 -6 -10 -5 -12 2 -7 13 8 64 -33 56 -46 -3 -4 -11 -5
-17 -2 -8 5 -8 3 0 -6 7 -8 20 -15 29 -16 9 -1 13 0 10 3 -3 4 -1 12 5 20 6 7
8 13 4 13 -4 0 -2 7 5 15 6 8 9 19 6 24 -4 5 -2 12 4 16 6 4 8 11 5 16 -5 8 7
13 26 11 9 -1 37 30 40 43 5 29 12 35 25 24 10 -8 12 -7 9 9 -2 12 3 26 11 32
7 7 11 16 8 21 -5 8 9 13 28 11 3 -1 9 5 12 13 3 10 0 12 -11 8 -11 -4 -14 -2
-9 5 4 7 13 12 20 12 22 0 37 22 25 37 -8 9 -8 17 0 26 6 8 8 17 4 20 -3 4 0
13 7 22 7 8 10 15 7 15 -3 0 -12 -8 -19 -17z m-8 -38 c-10 -12 -10 -18 0 -30
7 -8 10 -16 6 -16 -3 -1 -9 -2 -13 -3 -18 -3 -57 -36 -43 -36 11 -1 11 -3 -3
-11 -9 -6 -15 -14 -12 -18 2 -5 -2 -14 -10 -21 -8 -7 -12 -17 -8 -23 3 -6 1
-7 -5 -3 -10 6 -38 -31 -34 -46 1 -3 -5 -12 -13 -18 -8 -7 -15 -9 -15 -6 0 4
-9 2 -20 -4 -11 -6 -18 -15 -15 -20 3 -5 1 -11 -4 -15 -6 -3 -8 -12 -5 -19 3
-8 0 -17 -5 -21 -6 -3 -9 -10 -6 -15 3 -4 -3 -14 -13 -21 -15 -12 -16 -12 -5
2 11 13 9 19 -7 34 -11 10 -17 21 -15 25 3 4 -2 11 -11 14 -15 6 -15 8 1 26
10 11 20 18 23 16 7 -7 36 25 38 41 2 8 10 23 20 34 9 10 14 19 9 19 -4 0 -2
6 5 14 6 8 18 12 25 10 19 -8 38 29 23 44 -8 8 -4 10 15 7 22 -4 25 -2 22 15
-2 11 0 18 6 15 13 -9 11 9 -3 25 -7 8 -3 7 8 -3 19 -16 22 -16 28 -2 3 9 10
14 15 10 5 -3 12 -1 16 5 3 5 9 10 12 10 3 0 0 -7 -7 -15z"/>
<path d="M9125 5586 c-26 -28 -29 -49 -5 -36 11 6 22 15 25 20 4 6 12 7 18 3
7 -4 5 2 -3 13 -8 10 -14 19 -15 20 0 0 -9 -9 -20 -20z m15 -11 c-7 -8 -17
-15 -23 -15 -6 0 -2 7 9 15 25 19 30 19 14 0z"/>
<path d="M9074 5542 c7 -12 -23 -53 -38 -50 -6 2 -12 -1 -13 -5 -1 -4 -11 -19
-22 -34 -12 -14 -19 -29 -16 -33 2 -4 -7 -18 -20 -30 -14 -13 -25 -20 -25 -16
0 5 -7 3 -15 -4 -13 -11 -13 -14 2 -26 10 -7 14 -14 9 -14 -5 0 -3 -7 4 -15
13 -15 30 -12 30 7 0 5 -8 7 -17 4 -15 -5 -14 -3 2 9 11 9 20 21 20 26 0 6 8
16 17 23 12 9 16 22 12 42 -3 19 -1 24 4 16 8 -11 10 -11 15 2 4 9 11 16 17
16 6 0 1 -10 -10 -22 -12 -13 -16 -24 -10 -26 5 -2 7 -9 4 -14 -4 -7 -2 -8 5
-4 6 4 9 11 6 15 -2 5 12 27 31 50 20 22 32 41 29 41 -4 0 -3 6 3 13 8 10 6
16 -10 26 -11 7 -18 8 -14 3z m13 -31 c-4 -25 -27 -52 -39 -45 -5 3 -17 0 -26
-8 -15 -11 -15 -11 -5 3 7 9 10 19 6 23 -4 4 0 4 9 1 10 -4 22 2 35 19 22 31
24 31 20 7z m-105 -124 c-12 -13 -20 -26 -17 -29 3 -3 -1 -8 -9 -11 -16 -6
-33 10 -22 20 3 4 6 1 6 -6 0 -7 12 1 26 18 14 17 28 31 32 31 3 0 -4 -10 -16
-23z"/>
<path d="M9059 5483 c-13 -16 -12 -17 4 -4 9 7 17 15 17 17 0 8 -8 3 -21 -13z"/>
<path d="M8942 5187 c-5 -6 -8 -20 -7 -30 2 -10 -3 -21 -11 -24 -10 -3 -11 -9
-5 -17 9 -11 11 -17 11 -35 0 -4 10 -8 22 -7 28 1 32 33 6 47 -15 8 -17 13 -7
25 6 8 8 14 4 14 -4 0 -2 6 4 14 7 8 8 17 3 20 -6 3 -14 0 -20 -7z m16 -77
c15 0 15 -2 2 -10 -12 -8 -12 -10 -1 -10 8 0 12 -2 9 -5 -11 -11 -34 7 -35 28
0 12 1 16 4 10 3 -7 12 -13 21 -13z"/>
<path d="M8956 5052 c-3 -6 -2 -13 4 -17 15 -9 12 -27 -2 -20 -7 4 -4 -2 7
-12 11 -10 21 -25 23 -33 2 -8 10 -18 17 -23 8 -4 12 -16 10 -27 -3 -13 0 -18
7 -14 8 5 9 1 5 -11 -4 -9 -2 -24 4 -31 6 -8 8 -14 4 -14 -4 0 -2 -7 5 -15 7
-8 17 -12 22 -9 5 3 0 16 -12 29 -22 24 -19 53 4 38 7 -4 3 0 -9 11 -11 10
-20 22 -20 26 0 5 -3 12 -7 16 -4 4 -3 13 3 21 11 13 10 14 -13 17 -8 1 -12
15 -11 36 0 19 -1 29 -4 22 -4 -10 -8 -9 -17 4 -9 11 -15 13 -20 6z m64 -78
c0 -8 -19 -13 -24 -6 -3 5 1 9 9 9 8 0 15 -2 15 -3z"/>
<path d="M5450 4836 c0 -2 7 -7 16 -10 8 -3 12 -2 9 4 -6 10 -25 14 -25 6z"/>
<path d="M5495 4822 c7 -7 145 -10 149 -3 3 4 -31 7 -75 7 -43 0 -77 -2 -74
-4z"/>
<path d="M5656 4813 c-4 -11 -1 -11 14 -3 24 13 25 17 5 17 -8 0 -16 -6 -19
-14z"/>
<path d="M5697 4818 c-4 -11 6 -14 42 -13 25 1 49 -4 53 -9 5 -7 8 -7 8 2 0 9
5 10 19 2 14 -7 22 -7 27 1 4 8 9 7 16 -2 8 -12 9 -12 6 0 -3 11 -23 15 -79
15 -41 0 -77 4 -80 9 -3 5 -9 2 -12 -5z"/>
<path d="M5880 4801 c0 -4 11 -7 25 -7 14 0 25 3 25 7 0 3 -11 7 -25 7 -14 0
-25 -4 -25 -7z"/>
<path d="M5986 4802 c-3 -5 1 -9 9 -9 8 0 15 4 15 9 0 4 -4 8 -9 8 -6 0 -12
-4 -15 -8z"/>
<path d="M6070 4796 c0 -2 7 -7 16 -10 8 -3 12 -2 9 4 -6 10 -25 14 -25 6z"/>
<path d="M6120 4786 c7 -7 13 -7 20 0 6 6 3 10 -10 10 -13 0 -16 -4 -10 -10z"/>
<path d="M6308 4773 c7 -3 16 -2 19 1 4 3 -2 6 -13 5 -11 0 -14 -3 -6 -6z"/>
<path d="M9096 4791 c-4 -5 -2 -12 3 -15 5 -4 12 -2 15 3 4 5 2 12 -3 15 -5 4
-12 2 -15 -3z"/>
<path d="M9090 4736 c-7 -9 -9 -16 -5 -16 4 0 -4 -9 -19 -21 -20 -16 -24 -24
-16 -34 7 -9 6 -16 -4 -24 -19 -16 -14 -44 9 -47 13 -2 15 0 6 9 -8 8 -6 16 8
31 19 20 21 24 21 47 0 5 5 7 12 3 6 -4 8 -3 4 4 -3 6 2 15 11 21 16 9 17 11
2 26 -14 14 -17 14 -29 1z m8 -31 c-13 -12 -24 -29 -22 -37 1 -9 -8 -25 -19
-35 -22 -18 -22 -18 -5 3 13 14 15 23 7 31 -8 8 -4 15 13 27 12 9 24 21 24 26
3 20 4 21 16 14 8 -5 3 -14 -14 -29z"/>
<path d="M8325 4129 c-4 -6 -5 -12 -2 -15 2 -3 7 2 10 11 7 17 1 20 -8 4z"/>
<path d="M8203 4015 c0 -8 4 -12 9 -9 5 3 6 10 3 15 -9 13 -12 11 -12 -6z"/>
<path d="M8105 3981 c4 -7 2 -18 -5 -26 -18 -21 5 -27 24 -6 17 18 17 20 -4
31 -16 9 -20 9 -15 1z m25 -15 c0 -2 -8 -10 -17 -17 -16 -13 -17 -12 -4 4 13
16 21 21 21 13z"/>
<path d="M7999 3687 c25 -28 33 -28 37 0 2 11 0 13 -9 4 -8 -8 -16 -6 -31 7
-15 12 -14 9 3 -11z"/>
<path d="M8396 10062 c-4 -7 -2 -12 5 -12 8 0 8 -4 -1 -15 -7 -8 -17 -12 -24
-8 -6 4 -5 -1 3 -10 10 -13 17 -14 26 -7 9 8 15 8 20 0 9 -15 -14 -41 -34 -38
-9 2 -16 -4 -16 -14 0 -9 -11 -28 -24 -42 -14 -14 -21 -26 -16 -26 4 0 1 -8
-8 -18 -10 -10 -14 -22 -10 -26 4 -4 -3 -16 -17 -27 -14 -11 -20 -18 -15 -17
6 1 20 -3 32 -10 18 -10 21 -9 19 6 -2 9 4 28 13 42 9 13 11 21 6 18 -7 -4
-11 3 -11 17 0 13 4 21 8 19 5 -3 6 -9 3 -14 -3 -5 -1 -11 4 -15 6 -3 8 -12 5
-19 -5 -14 10 -29 34 -32 10 -2 10 1 1 12 -6 7 -15 11 -20 8 -5 -3 -9 0 -9 5
0 6 5 11 11 11 8 0 8 4 -1 15 -7 8 -8 20 -4 27 5 7 9 21 10 31 3 30 4 30 24
12 11 -10 16 -23 13 -29 -4 -6 9 3 28 19 19 17 31 32 27 33 -4 2 -5 9 -2 14 5
7 2 8 -6 3 -10 -6 -12 -4 -7 9 5 12 3 16 -5 14 -7 -3 -13 -10 -13 -15 0 -6 -3
-14 -7 -18 -16 -16 0 26 18 46 17 20 17 22 2 16 -23 -8 -50 2 -42 15 4 6 9 6
14 -2 5 -9 9 -9 14 -1 4 6 2 11 -4 11 -6 0 -8 5 -4 13 6 9 4 9 -8 -1 -13 -10
-17 -10 -20 0 -3 9 -6 9 -12 0z m29 -91 c-3 -5 -1 -12 4 -15 5 -4 12 -2 16 4
4 6 11 8 16 4 6 -4 3 -14 -7 -25 -16 -18 -18 -18 -36 -3 -14 13 -15 20 -7 31
13 15 23 18 14 4z m-50 -58 c-2 -10 -4 -19 -4 -21 -1 -2 -6 0 -11 3 -8 5 -7
11 1 21 15 18 18 18 14 -3z m-38 -63 c1 -11 -3 -22 -8 -25 -5 -4 -6 -11 -3
-17 4 -7 2 -8 -5 -4 -9 6 -9 11 -1 21 6 7 10 17 9 21 -2 11 0 24 4 24 1 0 3
-9 4 -20z"/>
<path d="M8410 9958 c0 -3 6 -11 14 -17 10 -9 17 -7 27 6 12 16 12 17 -2 6
-12 -10 -18 -10 -27 -1 -7 7 -12 9 -12 6z"/>
<path d="M8286 9455 c-15 -20 -32 -33 -37 -29 -6 3 -5 -3 2 -14 12 -20 13 -20
32 4 10 13 24 21 30 17 6 -4 8 0 4 10 -3 9 -2 19 3 22 6 4 10 10 10 16 0 19
-18 8 -44 -26z m14 -8 c0 -2 -10 -12 -22 -23 l-23 -19 19 23 c18 21 26 27 26
19z"/>
<path d="M8272 9338 c-8 -8 -3 -18 20 -40 23 -22 28 -31 19 -42 -8 -10 -8 -16
3 -25 12 -10 14 -9 11 6 -1 10 0 23 4 28 9 17 10 35 0 29 -21 -13 -30 9 -13
34 17 26 17 26 0 13 -13 -11 -19 -12 -25 -3 -5 9 -10 9 -19 0z m23 -18 c3 -6
-1 -7 -9 -4 -18 7 -21 14 -7 14 6 0 13 -4 16 -10z"/>
<path d="M8363 9164 c9 -11 14 -24 10 -28 -5 -4 -3 -7 2 -6 26 6 37 0 26 -13
-14 -17 -2 -30 14 -17 15 13 -3 62 -20 56 -5 -2 -19 4 -30 13 -20 16 -20 16
-2 -5z"/>
<path d="M8910 8160 c0 -5 5 -10 10 -10 6 0 10 5 10 10 0 6 -4 10 -10 10 -5 0
-10 -4 -10 -10z"/>
<path d="M9384 7046 c1 -12 6 -28 11 -36 12 -19 14 -130 3 -136 -5 -3 -6 -9
-3 -13 2 -5 -4 -16 -14 -25 -10 -9 -17 -27 -15 -41 2 -21 -7 -32 -19 -22 -9 6
-36 -26 -30 -36 4 -6 0 -8 -9 -4 -9 3 -23 -2 -33 -13 -10 -11 -23 -17 -29 -13
-6 3 -7 2 -3 -3 5 -5 12 -9 15 -9 18 -1 31 -17 26 -33 -4 -10 -3 -13 3 -6 4 6
16 10 26 8 9 -1 17 1 17 5 0 4 6 8 13 9 34 3 51 11 80 38 17 16 36 28 41 26 6
-2 8 0 3 4 -4 4 0 16 10 26 9 10 17 28 17 40 1 13 6 29 10 37 6 9 5 12 -2 7
-7 -4 -10 1 -9 14 1 11 5 20 10 20 5 0 5 6 0 13 -6 6 -9 20 -8 29 2 12 -2 15
-13 11 -14 -5 -15 -3 -5 7 16 18 -31 82 -54 73 -10 -4 -14 -2 -10 4 3 5 -2 17
-13 25 -17 15 -18 15 -16 -6z m22 -15 c-3 -4 4 -17 16 -27 21 -19 21 -19 14 1
-4 14 1 10 18 -10 16 -20 21 -34 15 -42 -7 -8 -4 -15 8 -22 11 -6 13 -11 5
-11 -8 0 -10 -5 -5 -12 12 -20 12 -37 1 -44 -6 -4 -5 -10 3 -15 11 -7 11 -9
-1 -9 -13 0 -13 -1 0 -10 9 -6 10 -10 3 -10 -6 0 -10 -8 -8 -19 2 -12 -13 -34
-41 -62 -42 -41 -54 -48 -99 -52 -11 -1 -23 -5 -26 -10 -3 -4 -13 1 -22 11
-15 17 -16 21 -3 31 13 11 15 9 11 -9 -3 -14 0 -20 8 -17 7 2 13 9 13 15 1 7
3 14 4 17 1 3 3 10 4 15 0 6 3 9 6 8 17 -5 47 24 46 44 -1 13 7 33 18 46 11
12 16 22 12 22 -4 0 -4 6 1 13 13 20 10 127 -4 139 -12 9 -9 28 3 28 3 0 3 -4
0 -9z"/>
<path d="M9425 6929 c1 -32 -2 -59 -7 -59 -5 0 -7 -4 -4 -9 3 -4 -3 -16 -13
-25 -10 -9 -17 -27 -15 -41 2 -26 -31 -59 -48 -49 -5 3 -8 2 -7 -3 1 -4 0 -10
-1 -13 -10 -28 -6 -38 13 -34 12 3 28 6 35 8 7 1 29 19 50 39 32 31 38 44 37
75 -1 20 1 42 5 47 6 9 6 28 0 40 -1 3 -3 9 -4 14 0 5 -4 13 -8 17 -4 4 -3 13
3 20 7 9 6 15 -3 20 -30 19 -35 12 -33 -47z m26 28 c-13 -13 -26 -3 -16 12 3
6 11 8 17 5 6 -4 6 -10 -1 -17z m5 -35 c1 -7 3 -14 4 -17 6 -12 6 -31 0 -40
-4 -5 -6 -27 -5 -47 1 -31 -5 -44 -37 -75 -21 -20 -38 -34 -38 -30 0 4 -9 3
-19 -3 -35 -18 -32 7 3 34 26 19 34 32 31 51 -1 18 6 32 24 48 33 27 37 37 19
48 -10 7 -10 9 2 9 13 0 13 1 0 10 -13 9 -13 10 0 10 13 0 13 1 0 11 -13 9
-13 10 0 6 8 -2 16 -9 16 -15z"/>
<path d="M9418 6833 c-8 -10 -13 -28 -12 -41 1 -15 -11 -33 -35 -53 -20 -17
-26 -26 -15 -20 12 5 23 8 26 6 7 -7 62 53 64 70 1 8 -2 15 -8 15 -6 0 -7 -8
-3 -17 5 -15 4 -16 -7 -5 -11 11 -10 16 6 28 14 10 16 14 5 14 -12 0 -12 2 1
10 8 5 10 10 4 10 -6 0 -17 -8 -26 -17z m6 -52 c3 -4 -7 -19 -22 -32 l-27 -24
23 26 c12 14 19 29 15 32 -3 4 -4 7 0 7 3 0 8 -4 11 -9z"/>
<path d="M9030 4755 c-7 -8 -9 -15 -6 -15 4 0 2 -9 -4 -20 -15 -29 -7 -25 18
9 22 30 15 53 -8 26z"/>
<path d="M8981 4667 c-8 -10 -7 -14 2 -14 8 0 14 6 14 14 0 7 -1 13 -2 13 -2
0 -8 -6 -14 -13z"/>
<path d="M8910 4578 c0 -5 -4 -7 -9 -3 -6 3 -14 -3 -20 -12 -6 -11 -11 -13
-11 -5 0 7 -13 -1 -30 -18 -16 -17 -30 -28 -30 -24 0 4 -9 -1 -20 -11 -10 -9
-26 -15 -34 -12 -10 4 -20 -2 -27 -15 -11 -21 -12 -21 -25 -3 -10 14 -14 15
-14 4 0 -12 -2 -12 -10 1 -6 9 -10 10 -10 3 0 -6 -9 -10 -19 -8 -11 2 -27 -5
-37 -16 -12 -14 -21 -16 -30 -8 -9 7 -18 4 -32 -11 -13 -14 -22 -18 -27 -11
-3 6 -11 9 -16 5 -5 -3 -6 -10 -3 -16 4 -6 -1 -8 -13 -4 -13 4 -26 -1 -38 -14
-20 -23 -21 -22 20 -24 17 -1 30 -6 30 -11 0 -6 8 -21 18 -35 l17 -24 0 22 c0
13 4 20 10 17 5 -3 20 0 32 7 13 7 26 12 29 11 12 -4 2 51 -10 55 -10 3 -11 0
-1 -18 10 -18 9 -21 -1 -15 -7 5 -10 4 -5 -3 3 -6 2 -14 -4 -17 -6 -4 -10 -3
-9 2 3 20 -2 27 -10 14 -8 -12 -12 -12 -25 -2 -9 8 -16 18 -16 24 0 6 7 2 15
-9 15 -19 15 -19 9 1 -4 14 -3 16 4 7 8 -11 10 -11 15 1 3 8 0 21 -6 28 -8 8
-5 8 7 -1 16 -12 18 -13 11 -1 -6 10 -4 12 5 6 7 -4 16 -2 22 6 8 11 9 10 4
-4 -3 -10 -2 -15 4 -12 5 3 18 -3 30 -15 11 -11 20 -15 20 -9 0 6 7 9 15 5 8
-3 15 -1 15 4 0 5 9 7 20 5 11 -2 19 1 17 7 -1 6 9 12 23 12 14 1 30 5 37 9 6
4 14 1 16 -5 4 -10 6 -10 6 0 1 7 6 10 13 6 6 -4 8 -3 5 3 -5 7 6 10 30 8 22
-2 41 1 45 8 4 7 11 12 15 12 18 1 53 27 48 35 -3 5 -1 11 5 15 5 3 10 1 10
-5 0 -7 5 -6 14 2 10 9 11 17 4 26 -6 6 -7 12 -2 12 5 0 0 6 -11 12 -25 15
-85 19 -85 6z m73 -14 c-1 -5 4 -15 10 -23 7 -8 7 -12 2 -9 -6 4 -19 0 -30 -8
-13 -10 -15 -14 -4 -14 9 -1 7 -5 -6 -12 -11 -7 -21 -10 -21 -7 -1 2 -10 -3
-20 -12 -11 -9 -32 -15 -49 -14 -16 2 -36 -2 -42 -7 -7 -6 -13 -7 -13 -4 0 4
-6 4 -12 -1 -19 -11 -39 -13 -32 -2 10 17 -13 9 -30 -10 -10 -10 -25 -18 -34
-16 -9 1 -22 -1 -28 -6 -12 -10 -58 27 -50 40 6 9 67 8 83 -2 7 -4 18 1 26 14
11 14 16 17 20 7 3 -9 11 -6 31 11 14 14 26 21 26 16 0 -4 12 4 26 18 15 15
30 24 35 22 4 -3 13 3 19 12 9 15 10 14 4 -7 -6 -22 -5 -23 9 -11 9 7 16 16
15 19 -2 16 4 18 35 17 17 -1 31 -6 30 -11z m-459 -158 c-3 -8 7 -24 23 -36
15 -13 20 -20 11 -17 -10 3 -20 2 -23 -4 -4 -5 -11 -7 -16 -3 -5 3 -7 9 -4 14
7 12 -17 26 -43 24 -21 -1 -22 0 -8 14 12 13 18 13 30 2 16 -12 22 -4 17 23
-1 5 3 6 8 2 6 -3 8 -12 5 -19z m40 16 c3 -5 -1 -9 -9 -9 -8 0 -12 4 -9 9 3 4
7 8 9 8 2 0 6 -4 9 -8z"/>
<path d="M8925 4559 c9 -13 -30 -38 -45 -29 -11 7 -23 1 -42 -17 -16 -15 -28
-23 -28 -18 0 4 -9 0 -20 -10 -22 -20 -17 -43 6 -24 8 6 14 8 14 4 0 -5 9 0
20 10 14 13 20 14 20 5 0 -9 5 -7 14 6 12 16 17 17 28 6 11 -11 10 -12 -4 -7
-10 4 -18 3 -18 -3 0 -14 24 -9 46 8 9 8 20 14 23 13 3 -2 6 2 6 7 0 6 6 15
14 20 26 15 20 35 -10 35 -15 1 -26 -2 -24 -6z m25 -26 c-11 -8 -17 -19 -14
-25 4 -6 2 -8 -4 -4 -6 3 -14 2 -17 -4 -5 -8 -11 -7 -21 1 -11 9 -17 9 -29 -1
-8 -7 -15 -9 -15 -5 0 5 -9 0 -20 -10 -11 -10 -20 -15 -20 -10 0 4 -8 1 -17
-6 -16 -13 -17 -12 -4 3 7 10 17 16 21 13 4 -2 17 7 30 20 17 18 27 22 40 15
13 -7 23 -3 40 15 12 13 29 21 37 18 11 -4 10 -9 -7 -20z"/>
<path d="M8919 4523 l-24 -28 28 24 c15 14 27 26 27 28 0 8 -8 1 -31 -24z"/>
<path d="M8730 4455 c-7 -8 -17 -12 -24 -8 -6 4 -26 8 -43 8 -31 1 -32 0 -16
-17 10 -11 20 -15 27 -9 6 5 19 7 28 6 9 -2 24 6 34 16 9 10 15 19 12 19 -3 0
-11 -7 -18 -15z m-50 -11 c0 -8 -19 -13 -24 -6 -3 5 1 9 9 9 8 0 15 -2 15 -3z"/>
<path d="M8519 4377 c6 -8 7 -18 3 -22 -4 -5 -1 -5 6 -1 10 6 10 11 1 22 -6 8
-14 14 -16 14 -3 0 0 -6 6 -13z"/>
<path d="M8625 4402 c2 -9 4 -21 4 -25 1 -5 6 -5 11 -2 15 9 12 32 -4 38 -9 4
-13 0 -11 -11z"/>
<path d="M8363 4313 c-24 -25 -41 -48 -39 -51 3 -2 -8 -15 -25 -29 -30 -25
-39 -49 -16 -40 8 3 14 -1 14 -9 0 -12 -4 -12 -23 1 -18 11 -24 12 -33 1 -7
-9 -7 -16 1 -24 7 -7 8 -12 3 -13 -38 -3 -71 -18 -47 -20 7 -1 18 -2 25 -3 6
0 12 -8 12 -16 0 -8 7 -15 15 -15 22 -1 57 43 55 68 -3 25 13 49 26 41 5 -3
12 2 15 10 3 9 10 14 14 11 5 -3 11 -1 15 4 3 6 12 8 19 5 11 -4 14 5 11 43
-1 26 1 56 6 66 17 30 -3 18 -48 -30z m32 -22 c1 -27 -3 -48 -6 -45 -4 2 -10
0 -13 -5 -9 -15 -39 -6 -42 12 -1 9 5 22 13 28 12 10 16 10 24 -2 5 -8 9 -12
10 -9 0 3 2 13 4 23 3 14 -1 17 -13 12 -13 -5 -13 -2 3 15 10 11 19 20 19 20
1 0 1 -22 1 -49z m-65 -67 c8 -8 9 -14 4 -13 -5 1 -11 0 -14 -1 -3 -1 -13 -3
-23 -5 -18 -3 -18 -3 -1 16 21 23 19 23 34 3z m-75 -44 c-3 -5 -1 -10 5 -10 7
0 10 -7 6 -17 -6 -17 -5 -17 8 0 11 15 15 15 19 3 3 -8 -1 -20 -9 -26 -8 -7
-14 -9 -14 -4 0 4 -7 -1 -15 -12 -13 -16 -14 -16 -9 -1 4 10 1 17 -7 17 -8 0
-6 5 6 13 13 10 15 16 6 21 -10 7 -7 26 5 26 3 0 2 -4 -1 -10z"/>
<path d="M8349 4279 c-6 -31 -5 -37 7 -35 8 1 19 8 24 14 6 7 7 10 4 7 -4 -3
-13 0 -21 6 -7 6 -13 10 -14 8z"/>
<path d="M8191 4103 c5 -29 -1 -36 -19 -20 -17 16 -20 15 -47 -13 -15 -16 -31
-27 -35 -25 -4 2 -17 -6 -30 -20 -16 -17 -18 -23 -7 -21 8 1 21 7 29 13 10 9
18 8 32 -3 14 -10 23 -11 32 -3 7 6 18 8 23 5 6 -4 8 2 6 14 -2 11 0 22 6 25
17 11 30 43 19 50 -6 4 -10 3 -9 -2z m-21 -48 c-5 -6 -6 -16 -2 -21 4 -4 -2
-2 -12 6 -18 13 -19 13 -14 -2 9 -22 -1 -29 -24 -17 -19 10 -19 12 8 40 21 22
30 26 41 17 9 -7 10 -14 3 -23z m-80 -19 c0 -2 -8 -10 -17 -17 -16 -13 -17
-12 -4 4 13 16 21 21 21 13z"/>
<path d="M8131 4056 c-18 -19 -19 -25 -8 -29 9 -3 14 1 13 11 0 9 5 17 12 17
6 0 12 4 13 8 2 18 -9 16 -30 -7z"/>
<path d="M8002 3954 c-7 -8 -8 -14 -3 -14 10 0 25 19 20 25 -2 1 -10 -3 -17
-11z"/>
<path d="M7983 3918 c-4 -7 -8 -22 -9 -33 -1 -11 -5 -29 -9 -40 -6 -18 -5 -18
5 -2 9 14 15 15 33 5 33 -18 45 -18 42 1 -1 9 2 24 7 34 5 9 5 17 1 16 -4 -1
-11 0 -15 1 -14 4 -28 7 -40 9 -9 1 -8 4 2 11 9 6 10 10 3 10 -6 0 -15 -6 -20
-12z m42 -28 c6 -1 12 -4 15 -7 3 -4 -1 -3 -7 1 -16 9 -17 -6 -2 -21 7 -7 7
-13 1 -17 -11 -6 -45 28 -48 49 -2 11 2 12 14 6 10 -5 22 -10 27 -11z"/>
<path d="M8005 3870 c10 -11 20 -20 22 -20 2 0 -2 9 -9 20 -7 11 -17 20 -22
20 -5 0 -1 -9 9 -20z"/>
<path d="M8000 3770 c-11 -7 -12 -12 -4 -20 8 -8 14 -7 23 4 14 17 1 28 -19
16z"/>
<path d="M2897 3718 c-3 -10 3 -15 22 -16 112 -7 162 -12 172 -18 8 -4 9 -3 5
4 -4 7 -3 12 3 12 5 0 12 -4 16 -9 3 -6 14 -8 25 -6 11 2 22 0 24 -4 3 -4 18
-7 33 -6 15 1 36 -2 45 -7 14 -7 16 -5 11 8 -5 14 -2 14 23 -2 15 -11 25 -14
21 -7 -4 6 -3 14 3 18 5 3 10 0 10 -8 0 -15 46 -18 68 -4 7 5 12 3 12 -5 0
-16 46 -22 55 -8 3 6 11 10 17 10 7 0 7 -4 -1 -14 -9 -11 -4 -13 29 -11 22 1
43 -2 46 -7 3 -5 12 -4 20 3 11 9 14 8 14 -2 0 -8 6 -5 15 7 15 19 15 19 9 -1
-5 -16 -4 -17 5 -5 6 8 11 18 11 22 0 10 -30 5 -49 -6 -11 -7 -13 -5 -9 5 4
11 -2 14 -26 14 -17 -1 -35 1 -41 4 -5 3 -35 6 -65 7 -30 1 -55 3 -55 4 0 1
-22 3 -50 4 -27 1 -55 5 -62 9 -6 4 -14 3 -18 -3 -4 -6 -12 -7 -18 -3 -17 10
-67 13 -67 4 0 -4 -7 -8 -15 -8 -8 0 -15 4 -15 8 0 3 -9 9 -20 12 -11 3 -18 1
-14 -4 3 -5 -2 -9 -11 -9 -9 0 -13 5 -9 11 5 8 1 8 -14 0 -25 -13 -35 -14 -28
-3 3 5 -1 9 -9 9 -8 0 -12 -4 -9 -9 9 -14 -9 -9 -29 10 -11 9 -17 11 -13 4 6
-10 0 -12 -21 -10 -15 2 -31 7 -34 11 -3 5 -9 2 -12 -5z m318 -29 c3 -3 -6 -5
-19 -5 -14 1 -28 4 -31 7 -3 3 6 5 19 5 14 -1 28 -4 31 -7z m150 -9 c3 -5 1
-10 -4 -10 -6 0 -11 5 -11 10 0 6 2 10 4 10 3 0 8 -4 11 -10z m79 -9 c-8 -8
-34 -10 -38 -2 -3 4 6 7 19 7 14 0 22 -2 19 -5z m46 -12 c0 -5 -4 -9 -8 -9 -5
0 -9 7 -9 15 0 8 4 12 9 9 4 -3 8 -9 8 -15z m53 -9 c10 -12 9 -12 -4 -2 -9 6
-18 9 -21 6 -3 -3 -9 -1 -12 4 -9 15 22 8 37 -8z"/>
<path d="M3616 3654 c-4 -10 -1 -21 6 -26 18 -11 28 -10 28 4 0 6 9 3 20 -7
11 -10 20 -14 20 -9 0 6 9 10 20 11 13 1 18 -2 13 -10 -4 -7 0 -6 10 2 14 11
17 11 17 0 0 -11 2 -11 10 1 14 22 12 33 -5 27 -8 -4 -17 -1 -21 5 -5 7 -11 5
-20 -6 -8 -11 -14 -13 -19 -7 -3 6 -3 11 2 11 4 0 1 4 -7 10 -8 5 -19 5 -25 0
-15 -13 -27 -13 -35 0 -5 8 -9 6 -14 -6z m59 -4 c-3 -5 -1 -10 6 -10 7 0 10
-3 6 -6 -9 -9 -28 6 -22 17 4 5 8 9 11 9 3 0 2 -4 -1 -10z m-25 -6 c0 -8 -19
-13 -24 -6 -3 5 1 9 9 9 8 0 15 -2 15 -3z"/>
<path d="M7989 3658 c-5 -9 -5 -48 -1 -43 6 6 11 45 5 45 -2 0 -4 -1 -4 -2z"/>
<path d="M3780 3635 c-10 -12 -10 -19 -2 -27 9 -9 12 -9 12 1 0 11 3 11 17 0
10 -8 14 -9 10 -2 -4 6 -3 14 3 18 5 3 10 -1 10 -10 0 -9 5 -13 10 -10 6 3 10
0 10 -7 0 -8 3 -9 8 -3 13 19 35 17 28 -2 -5 -16 -4 -15 9 1 8 11 15 15 15 8
0 -6 10 -11 23 -10 29 1 50 -5 60 -17 5 -6 7 -4 4 6 -3 9 1 16 8 16 7 0 11 -6
9 -12 -3 -7 7 -12 28 -13 30 -1 73 -8 73 -12 0 -1 12 -3 26 -4 16 -2 26 2 26
10 0 7 -4 11 -9 8 -4 -3 -8 0 -8 6 0 6 -11 8 -24 6 -13 -2 -35 2 -49 9 -21 11
-27 10 -42 -4 -15 -15 -16 -15 -10 1 7 18 8 17 -72 20 -28 1 -40 5 -36 12 4 6
-1 5 -10 -3 -11 -9 -17 -10 -17 -2 0 6 -7 11 -15 11 -8 0 -15 -5 -15 -11 0 -5
-5 -7 -10 -4 -6 4 -8 10 -5 15 3 4 -3 7 -12 5 -10 -1 -23 2 -29 6 -7 6 -16 3
-24 -6z m24 -3 c3 -5 -1 -9 -9 -9 -8 0 -12 4 -9 9 3 4 7 8 9 8 2 0 6 -4 9 -8z
m260 -40 c3 -5 -1 -9 -9 -9 -8 0 -12 4 -9 9 3 4 7 8 9 8 2 0 6 -4 9 -8z m82
-24 c3 -4 -1 -5 -10 -4 -8 1 -18 5 -22 8 -3 4 1 5 10 4 8 -1 18 -5 22 -8z"/>
<path d="M8020 3595 c-7 -8 -16 -12 -21 -9 -5 3 -9 0 -9 -5 0 -6 6 -11 13 -11
8 0 7 -4 -3 -10 -9 -6 -10 -10 -3 -10 6 0 15 5 19 11 5 8 9 8 14 -1 5 -9 9 -9
14 -1 4 6 1 11 -6 11 -9 0 -9 3 2 10 11 7 11 10 2 10 -7 0 -10 5 -7 10 9 15
-1 12 -15 -5z"/>
<path d="M4182 3563 c2 -13 12 -18 36 -17 17 0 32 -2 32 -6 0 -3 11 -6 25 -6
14 0 25 4 25 8 0 8 -15 12 -39 9 -7 -2 -10 2 -7 7 3 6 -2 9 -11 8 -10 -2 -28
1 -41 5 -19 8 -23 6 -20 -8z"/>
<path d="M4310 3538 c0 -4 5 -9 10 -9 6 -1 19 -3 30 -4 11 -1 21 -4 23 -5 1
-1 16 -4 32 -5 17 -2 44 -7 60 -10 17 -4 39 -8 50 -10 11 -2 31 -6 44 -9 13
-3 21 -2 17 1 -7 7 -22 11 -69 18 -16 3 -34 8 -40 12 -10 6 -36 10 -94 15 -13
1 -23 5 -23 9 0 4 -9 7 -20 6 -11 -1 -20 -5 -20 -9z"/>
<path d="M8023 3528 c-11 -19 -12 -37 -3 -43 5 -3 7 -14 5 -25 -2 -12 0 -18 4
-15 5 2 14 -2 20 -9 9 -10 9 -16 1 -21 -8 -5 -7 -12 4 -23 14 -16 16 -21 16
-41 0 -5 8 -12 17 -15 10 -4 14 -4 10 0 -4 4 -1 14 6 23 10 14 10 14 -5 3 -11
-9 -18 -10 -23 -2 -3 5 -3 10 1 10 3 0 2 6 -3 13 -8 10 -10 32 -3 40 15 19 0
54 -25 56 -5 1 -10 15 -9 31 1 33 -1 36 -13 18z m43 -81 c3 -21 1 -21 -20 2
-17 19 -17 19 0 17 9 -2 18 -10 20 -19z"/>
<path d="M4594 3482 c4 -3 14 -7 22 -8 9 -1 13 0 10 4 -4 3 -14 7 -22 8 -9 1
-13 0 -10 -4z"/>
<path d="M8095 3299 c7 -37 52 -65 52 -33 0 10 -4 11 -13 3 -14 -11 -29 4 -20
20 3 5 -1 14 -9 21 -12 10 -13 8 -10 -11z"/>
<path d="M8136 3222 c-3 -5 1 -15 8 -21 11 -10 14 -9 12 3 -3 21 -13 29 -20
18z"/>
<path d="M8200 3116 c0 -2 8 -10 18 -17 15 -13 16 -12 3 4 -13 16 -21 21 -21
13z"/>
<path d="M8313 2947 c13 -11 14 -16 6 -19 -9 -3 -8 -6 3 -10 23 -9 16 22 -8
34 -18 9 -18 9 -1 -5z"/>
<path d="M8353 2865 c0 -8 4 -12 9 -9 5 3 6 10 3 15 -9 13 -12 11 -12 -6z"/>
<path d="M8388 2807 c7 -8 10 -16 7 -18 -2 -3 9 -20 25 -37 16 -18 30 -36 31
-40 0 -4 5 -6 9 -5 4 1 11 -4 14 -12 3 -9 0 -12 -10 -8 -21 8 -17 -7 8 -34 14
-15 17 -23 8 -23 -9 0 -7 -5 6 -15 10 -8 15 -15 10 -15 -5 0 -3 -7 4 -15 10
-12 10 -15 -1 -15 -9 -1 -8 -4 4 -11 12 -7 15 -15 9 -22 -5 -7 -8 -20 -7 -29
2 -10 -1 -18 -5 -18 -5 0 -7 -9 -5 -20 2 -11 -3 -24 -13 -30 -14 -8 -14 -9 -2
-10 13 0 13 -1 0 -10 -10 -6 -11 -10 -2 -10 6 0 12 -4 12 -10 0 -6 -5 -9 -12
-8 -7 2 -13 -3 -14 -9 -1 -7 -3 -15 -4 -18 -1 -3 -3 -11 -4 -17 0 -7 -9 -13
-18 -13 -10 0 -25 -10 -33 -23 -9 -12 -13 -22 -9 -22 3 0 1 -6 -5 -13 -6 -8
-7 -18 -3 -22 4 -5 0 -6 -10 -2 -15 5 -53 -25 -53 -42 0 -3 -6 -5 -13 -5 -7 1
-31 -14 -52 -35 -22 -20 -44 -37 -51 -39 -6 -1 -18 -9 -26 -17 -8 -9 -20 -12
-26 -9 -8 5 -8 2 1 -7 20 -22 14 -27 -29 -24 -30 2 -38 0 -30 -8 23 -23 4 -33
-27 -14 -7 5 -15 2 -18 -8 -4 -9 -13 -14 -20 -11 -7 3 -16 1 -19 -5 -4 -5 -10
-7 -15 -4 -4 3 -13 -2 -19 -9 -7 -9 -23 -13 -39 -10 -26 5 -26 4 -7 -10 11 -8
23 -12 27 -10 5 3 8 0 8 -6 0 -7 6 -10 13 -7 6 2 21 0 32 -6 28 -15 85 -19 85
-6 0 6 5 7 12 3 7 -5 8 -3 3 6 -5 9 -2 10 13 6 13 -4 22 -1 26 9 3 8 9 15 13
14 4 -1 11 0 16 1 4 1 10 3 15 4 14 3 67 41 75 53 4 7 15 13 22 13 8 0 15 5
15 12 0 6 3 8 6 5 4 -4 23 7 44 23 36 28 48 69 23 77 -6 2 -10 -9 -8 -26 2
-27 0 -29 -16 -21 -12 7 -20 7 -24 0 -3 -5 -1 -10 4 -10 6 0 11 -5 11 -12 0
-6 -8 -3 -20 7 -11 10 -17 23 -13 29 3 6 2 7 -3 3 -5 -5 -9 -22 -9 -38 0 -16
-4 -29 -9 -28 -5 0 -13 -5 -18 -13 -8 -10 -9 -9 -5 3 3 9 -1 16 -7 16 -8 0
-12 -10 -10 -24 2 -24 2 -24 -24 -7 -22 15 -25 15 -14 2 11 -14 11 -16 0 -14
-24 3 -36 16 -33 34 2 9 4 19 4 21 1 2 11 -4 24 -15 l22 -19 -20 25 c-11 14
-13 19 -5 13 18 -16 41 2 33 25 -3 10 1 8 11 -6 10 -12 22 -20 27 -16 6 3 3
12 -8 20 -17 13 -17 14 2 8 11 -3 16 -2 10 3 -14 11 -17 33 -5 33 6 0 10 -7
10 -16 0 -14 3 -14 16 -3 13 10 17 10 26 -2 8 -11 9 -11 5 3 -3 9 1 22 9 28 8
7 14 9 14 4 0 -4 7 1 16 12 8 10 12 13 8 5 -5 -10 -3 -12 7 -5 16 10 44 15 35
7 -3 -4 0 -13 7 -22 11 -14 10 -15 -8 -1 -11 8 -17 10 -13 6 4 -5 3 -15 -3
-22 -7 -8 -7 -14 1 -19 13 -8 71 55 63 69 -4 5 1 7 10 3 8 -3 21 1 27 9 7 8 9
14 4 14 -5 0 -2 5 6 10 10 6 11 10 3 10 -7 0 -13 4 -13 10 0 5 6 7 13 4 8 -3
22 12 36 36 12 22 19 40 16 40 -4 0 0 7 9 15 8 8 13 24 11 35 -2 11 1 22 6 26
6 4 6 11 -2 20 -9 11 -9 14 0 14 9 0 8 6 -1 23 -7 12 -11 28 -10 35 2 6 -2 12
-8 12 -6 0 -8 4 -5 10 3 5 0 20 -7 32 -7 13 -11 26 -10 31 1 4 -9 12 -23 17
-14 5 -25 12 -25 16 0 3 7 4 15 0 21 -8 -18 69 -42 83 -11 7 -13 11 -5 11 10
0 9 4 -3 16 -12 12 -19 13 -29 5 -18 -15 -36 4 -36 38 0 5 -7 12 -16 15 -13 5
-14 4 -6 -7z m77 -67 c-3 -5 4 -14 16 -20 11 -7 18 -14 15 -17 -3 -3 2 -12 10
-20 10 -11 12 -19 4 -28 -12 -14 21 -50 35 -38 4 5 5 3 1 -4 -3 -6 -2 -14 4
-18 6 -4 8 -11 5 -16 -4 -5 -1 -9 5 -9 7 0 10 -6 7 -14 -3 -8 -3 -17 1 -21 4
-4 8 -11 8 -16 1 -5 3 -11 4 -14 1 -3 3 -13 4 -22 1 -10 5 -23 9 -30 4 -6 3
-14 -2 -18 -5 -3 -8 -14 -6 -25 2 -12 -5 -26 -18 -35 -15 -10 -17 -15 -7 -16
11 0 11 -2 2 -6 -6 -2 -10 -8 -7 -12 6 -11 -21 -46 -37 -46 -7 0 -14 -11 -14
-25 -2 -41 -3 -43 -19 -30 -14 12 -20 5 -17 -22 2 -8 -28 -32 -29 -24 -1 3 -2
12 -3 19 -2 22 -50 14 -90 -15 -36 -25 -64 -29 -50 -7 3 5 10 7 15 3 12 -7 41
15 34 26 -3 4 2 13 10 20 12 10 15 10 15 0 0 -10 3 -10 15 0 8 6 14 15 13 18
0 4 1 10 2 15 1 4 3 10 5 15 1 4 5 15 10 25 7 17 8 17 22 -3 8 -11 19 -20 25
-20 7 0 6 6 -2 15 -10 12 -10 18 0 30 7 8 9 15 5 15 -4 0 -2 6 4 13 6 8 7 17
3 21 -4 4 0 6 8 4 10 -2 15 5 16 22 1 14 2 27 4 30 4 11 11 46 13 67 2 12 6
25 10 29 4 4 2 13 -4 21 -6 7 -8 13 -4 13 4 0 2 7 -5 15 -7 8 -9 15 -5 15 4 0
2 7 -5 15 -7 8 -9 15 -4 15 4 0 -3 12 -17 26 -13 14 -18 24 -10 22 7 -2 15 5
16 15 3 15 -7 22 -28 18 -5 -1 -6 3 -3 8 4 5 2 12 -4 16 -6 4 -8 11 -4 16 3 5
10 7 15 3 5 -3 7 -9 4 -14z m-225 -616 c0 -8 -19 -13 -24 -6 -3 5 1 9 9 9 8 0
15 -2 15 -3z m96 -21 c-10 -11 -19 -7 -22 10 -2 15 0 16 12 6 8 -6 12 -14 10
-16z m-144 -50 c7 -6 24 -9 38 -6 l25 4 -25 -18 c-14 -10 -28 -18 -32 -18 -3
0 -9 -3 -13 -7 -4 -4 -13 -4 -20 -2 -7 3 -15 -2 -19 -11 -3 -9 -11 -13 -17
-10 -5 4 -18 0 -27 -8 -20 -17 -63 -17 -85 2 -9 7 -21 10 -26 7 -16 -11 -22
11 -6 24 8 7 15 9 15 5 0 -4 7 -2 15 5 12 10 15 10 15 -1 1 -9 8 -5 20 10 11
13 20 18 20 12 0 -12 27 -10 49 3 10 7 11 10 0 16 -7 5 3 7 24 6 20 -2 42 -7
49 -13z"/>
<path d="M8486 2671 c-4 -5 -2 -12 3 -15 5 -4 12 -2 15 3 4 5 2 12 -3 15 -5 4
-12 2 -15 -3z"/>
<path d="M8509 2618 c7 -10 10 -18 6 -18 -4 0 -2 -7 5 -15 7 -8 9 -15 5 -15
-4 0 -2 -6 4 -14 7 -8 8 -17 3 -20 -5 -3 -8 -19 -7 -36 1 -17 -2 -30 -9 -30
-7 0 -6 -4 2 -9 11 -7 11 -9 -2 -14 -9 -4 -13 -14 -11 -29 3 -14 -4 -31 -17
-45 -12 -13 -18 -23 -14 -23 5 0 2 -7 -5 -16 -11 -14 -11 -18 3 -28 15 -11 15
-13 -1 -23 -14 -9 -20 -7 -30 9 -12 19 -24 18 -27 -3 -1 -5 -3 -11 -4 -14 -1
-3 -3 -8 -4 -12 -1 -5 -5 -13 -9 -20 -4 -7 -1 -10 10 -8 22 3 45 -14 36 -28
-4 -6 -1 -7 6 -3 7 5 10 10 7 13 -3 3 -1 14 5 25 8 15 13 17 24 8 12 -10 13
-8 10 11 -5 24 12 52 26 44 11 -7 27 25 24 48 -2 9 5 22 15 27 11 6 17 18 15
30 -2 11 1 22 6 25 5 4 6 12 2 18 -4 7 -8 20 -9 30 -1 9 -3 19 -4 22 -1 3 -4
10 -5 15 -1 6 -4 12 -5 15 -1 3 -4 10 -5 15 -1 6 -4 13 -5 18 -1 4 -2 10 -2
13 1 4 -11 17 -26 30 -14 13 -20 16 -13 7z m46 -98 c-3 -5 -1 -11 4 -15 5 -3
8 -14 6 -25 -2 -11 1 -22 6 -26 6 -3 6 -11 1 -17 -4 -7 -8 -19 -7 -27 1 -18
-25 -39 -40 -33 -7 2 -12 -3 -12 -12 0 -9 6 -14 13 -11 7 3 11 -2 9 -12 -2 -9
-4 -21 -4 -26 -1 -5 -4 -6 -8 -3 -3 4 -11 3 -17 -3 -18 -14 -43 5 -28 23 7 7
9 16 6 19 -3 3 7 16 23 27 23 19 25 24 13 33 -12 8 -12 9 2 4 10 -3 20 -1 23
4 4 6 2 10 -3 10 -5 0 -8 24 -7 53 4 63 3 60 15 52 6 -4 8 -10 5 -15z m-120
-240 c-8 -12 21 -20 33 -8 6 6 12 6 17 -3 5 -7 4 -10 -3 -5 -6 3 -17 -3 -25
-15 -10 -13 -17 -17 -22 -10 -3 6 -10 9 -15 6 -7 -4 -7 17 0 35 1 3 2 9 1 13
-1 5 3 6 9 2 6 -3 8 -10 5 -15z"/>
<path d="M8545 2477 c0 -18 4 -33 8 -34 16 -6 19 -2 10 10 -6 6 -9 20 -8 29 2
10 0 20 -4 22 -4 3 -7 -9 -6 -27z"/>
<path d="M8540 2400 c-6 -11 -8 -20 -6 -20 3 0 10 9 16 20 6 11 8 20 6 20 -3
0 -10 -9 -16 -20z"/>
<path d="M8499 2365 c-1 -3 -2 -8 -3 -12 -1 -5 -5 -13 -9 -20 -11 -18 6 -23
26 -8 16 11 16 13 2 19 -9 3 -13 10 -10 16 3 5 4 10 1 10 -3 0 -7 -2 -7 -5z"/>
<path d="M8427 2259 c7 -7 15 -10 18 -7 3 3 -2 9 -12 12 -14 6 -15 5 -6 -5z"/>
<path d="M8124 2039 c-8 -9 -26 -16 -40 -14 -13 1 -29 -4 -35 -11 -6 -7 -17
-10 -25 -7 -17 6 -19 -13 -1 -24 24 -15 62 -10 85 10 15 14 22 16 22 7 0 -9 4
-8 13 5 8 10 19 15 25 11 6 -3 13 -2 17 4 4 6 10 8 15 5 5 -3 12 0 16 7 4 7 4
10 -1 6 -4 -4 -15 -3 -22 4 -22 18 -51 17 -69 -3z m53 -4 c0 -6 -4 -9 -9 -7
-6 1 -16 -3 -24 -9 -8 -6 -14 -8 -14 -3 0 4 -10 -2 -22 -13 -23 -21 -70 -25
-85 -9 -4 5 -3 6 3 3 7 -4 17 -1 23 7 6 7 22 12 35 11 14 -2 32 5 40 14 17 19
50 22 53 6z"/>
<path d="M8055 2000 c-2 -3 5 -6 15 -7 11 -1 22 2 24 5 3 4 -4 8 -15 8 -11 0
-22 -3 -24 -6z"/>
<path d="M8395 2201 c-3 -5 -2 -12 3 -15 5 -3 9 1 9 9 0 17 -3 19 -12 6z"/>
<path d="M8347 2184 c-7 -8 3 -34 13 -34 9 0 8 26 -1 35 -3 3 -8 2 -12 -1z"/>
<path d="M8243 2108 c-11 -19 -12 -38 -2 -38 6 0 9 8 7 18 -2 10 2 16 10 14 8
-1 11 2 7 8 -8 13 -12 13 -22 -2z"/>
<path d="M8285 2111 c-3 -5 -2 -12 3 -15 5 -3 9 1 9 9 0 17 -3 19 -12 6z"/>
<path d="M8194 2086 c1 -8 5 -18 8 -22 4 -3 5 1 4 10 -1 8 -5 18 -8 22 -4 3
-5 -1 -4 -10z"/>
</g>
</svg>
